<svg width="657" height="240" viewBox="0 0 657 240" fill="none" xmlns="http://www.w3.org/2000/svg">
<g clip-path="url(#clip0_33_472)">
<path fill-rule="evenodd" clip-rule="evenodd" d="M83.1067 165.633C37.692 165.807 0.619745 128.591 0.824821 82.8564C1.03161 37.6447 37.923 0.585494 83.6459 0.857938C128.715 1.1271 165.73 38.0698 165.378 83.9412C165.033 128.953 128.391 165.779 83.1067 165.633" fill="#0090FF"/>
<path fill-rule="evenodd" clip-rule="evenodd" d="M93.3261 76.587C100.501 77.6025 107.513 78.5929 114.743 79.6162C115.351 77.4372 115.868 75.5794 116.461 73.4554C109.026 72.3533 101.93 71.3016 94.3101 70.1727C96.8725 61.0914 99.0859 52.4083 101.854 43.9032C102.766 41.1038 104.803 38.4761 106.88 36.3018C109.604 33.452 113.374 34.0834 115.681 37.2149C116.648 38.5264 117.558 39.9135 118.717 41.0361C120.196 42.4673 122.376 43.1632 123.862 41.7698C124.838 40.855 124.807 38.7028 124.898 37.0843C124.934 36.434 124.169 35.6688 123.639 35.069C121.059 32.1437 117.574 31.1077 113.894 30.9534C105.683 30.6086 99.7917 34.8013 95.1653 41.1384C90.5814 47.4189 88.5708 54.803 86.3826 62.1006C85.7444 64.2308 85.1973 66.3894 84.556 68.7274C76.5624 67.5686 68.8942 66.4571 61.0028 65.3156C60.723 67.449 60.4621 69.4501 60.1838 71.5756C67.9966 72.78 75.4714 73.9309 83.1962 75.1212C82.1618 79.4856 81.1982 83.5586 80.2078 87.7372C72.6308 86.676 65.4469 85.6731 58.2141 84.6592C57.9076 86.9988 57.6765 88.7669 57.403 90.8483C64.6671 91.9599 71.6704 93.0305 78.7207 94.109C78.7207 94.9056 78.8072 95.3685 78.7066 95.7889C76.4571 105.391 74.3647 115.036 71.8417 124.565C70.636 129.109 68.6962 133.495 64.925 136.688C61.8203 139.316 58.4091 138.877 56.0747 135.616C55.0198 134.147 54.1395 132.403 52.7468 131.373C51.7297 130.619 49.466 130.165 48.7193 130.77C47.6126 131.667 46.8109 133.653 46.9052 135.111C46.9854 136.403 48.2273 137.915 49.367 138.796C53.2073 141.758 57.7268 142.188 62.306 141.286C69.9758 139.773 75.385 134.98 78.738 128.202C81.3727 122.874 83.3455 117.184 85.2099 111.521C86.8982 106.393 88.0442 101.085 89.4747 95.6755C97.0077 96.7698 104.391 97.842 111.927 98.9362C112.55 96.7824 113.111 94.8332 113.716 92.7345C105.831 91.5741 98.3077 90.4641 90.7197 89.3463C91.6315 84.8859 92.4426 80.9136 93.3261 76.587" fill="white"/>
<path d="M223.769 119.013V86.7846H259.724V76.2098H223.769V56.6716H261.939V45.9961H210.979V119.013H223.769ZM282.226 58.0816V45.9961H270.241V58.0816H282.226ZM282.226 119.013V64.8293H270.241V119.013H282.226ZM307.688 119.013V45.9961H295.704V119.013H307.688ZM345.489 120.322C359.387 120.322 367.645 111.459 370.063 102.798H358.279C356.164 107.934 351.33 110.351 344.985 110.351C338.137 110.351 331.087 105.416 330.281 95.3452H370.667C371.775 77.2169 361.301 63.6208 344.683 63.6208C329.375 63.6208 318.095 75.2027 318.095 91.5181C318.095 107.129 328.065 120.322 345.489 120.322V120.322ZM358.481 86.5832H330.281C331.389 76.4112 339.043 72.987 344.683 72.987C351.733 72.987 358.178 78.1233 358.481 86.5832V86.5832ZM404.791 120.322C416.373 120.322 427.552 113.171 429.969 100.482H418.286C416.675 107.733 410.934 110.351 404.992 110.351C397.943 110.351 391.094 104.812 391.094 91.9209C391.094 79.1305 397.741 73.5913 405.295 73.5913C411.841 73.5913 416.776 77.6198 417.884 83.3604H429.566C427.451 71.3756 417.179 63.6208 405.295 63.6208C389.08 63.6208 378.707 75.9077 378.707 92.0217C378.707 108.136 389.08 120.322 404.791 120.322ZM463.67 120.322C476.864 120.322 490.359 111.661 490.359 92.0217C490.359 72.4835 476.864 63.6208 463.67 63.6208C450.477 63.6208 436.982 72.4835 436.982 92.0217C436.982 111.661 450.477 120.322 463.67 120.322ZM463.67 110.553C456.016 110.553 449.369 104.611 449.369 92.0217C449.369 79.5333 456.016 73.3899 463.67 73.3899C471.324 73.3899 477.972 79.5333 477.972 92.0217C477.972 104.611 471.324 110.553 463.67 110.553ZM513.032 58.0816V45.9961H501.048V58.0816H513.032ZM513.032 119.013V64.8293H501.048V119.013H513.032ZM538.495 119.013V90.2088C538.495 80.4397 541.819 73.3899 551.084 73.3899C560.35 73.3899 561.357 80.6412 561.357 87.8925V119.013H573.342V84.9718C573.342 72.0806 568.004 63.6208 554.911 63.6208C547.257 63.6208 541.617 66.7428 538.495 72.3827V64.8293H526.511V119.013H538.495Z" fill="white"/>
</g>
<path d="M257.154 201.885C257.154 196.19 256.36 191.654 254.77 188.276C253.181 184.833 251.062 182.217 248.413 180.429C245.83 178.641 242.883 177.482 239.572 176.952C236.261 176.356 232.883 176.058 229.44 176.058H222.983V227.812H229.44C232.883 227.812 236.261 227.547 239.572 227.017C242.883 226.421 245.83 225.229 248.413 223.441C251.062 221.587 253.181 218.971 254.77 215.593C256.36 212.15 257.154 207.58 257.154 201.885ZM230.036 165.926C235.731 165.926 241.029 166.489 245.929 167.614C250.83 168.74 255.068 170.661 258.644 173.376C262.287 176.091 265.134 179.766 267.187 184.402C269.24 189.038 270.267 194.865 270.267 201.885C270.267 208.905 269.24 214.732 267.187 219.368C265.134 224.004 262.287 227.712 258.644 230.494C255.068 233.209 250.83 235.129 245.929 236.255C241.029 237.381 235.731 237.944 230.036 237.944H210.367V165.926H230.036Z" fill="white"/>
<path d="M513.286 196.52C511.3 196.322 509.412 196.222 507.624 196.222C505.77 196.222 504.114 196.454 502.657 196.918C501.201 197.315 499.975 198.043 498.982 199.103C497.989 200.096 497.227 201.487 496.697 203.275C496.168 205.063 495.903 207.282 495.903 209.931V237.943H484.082V184.501H495.704V194.037C497.161 191.057 499.114 188.739 501.565 187.083C504.081 185.362 506.962 184.468 510.207 184.401C510.67 184.401 511.167 184.434 511.697 184.501C512.293 184.501 512.823 184.534 513.286 184.6V196.52Z" fill="white"/>
<path d="M452.675 229.599C454.662 229.599 456.483 229.235 458.139 228.506C459.794 227.711 461.251 226.586 462.51 225.129C463.768 223.606 464.728 221.718 465.39 219.467C466.119 217.149 466.483 214.434 466.483 211.321C466.483 208.275 466.119 205.593 465.39 203.275C464.728 200.957 463.768 199.037 462.51 197.514C461.251 195.99 459.794 194.865 458.139 194.136C456.483 193.341 454.662 192.944 452.675 192.944C450.689 192.944 448.868 193.341 447.212 194.136C445.556 194.865 444.1 195.99 442.841 197.514C441.583 199.037 440.59 200.957 439.861 203.275C439.199 205.593 438.868 208.275 438.868 211.321C438.868 214.434 439.199 217.149 439.861 219.467C440.59 221.718 441.583 223.606 442.841 225.129C444.1 226.586 445.556 227.711 447.212 228.506C448.868 229.235 450.689 229.599 452.675 229.599ZM452.675 183.309C456.053 183.309 459.298 183.871 462.41 184.997C465.523 186.123 468.271 187.845 470.655 190.163C473.105 192.414 475.059 195.295 476.516 198.805C477.973 202.315 478.701 206.487 478.701 211.321C478.701 216.155 477.973 220.328 476.516 223.837C475.059 227.347 473.105 230.261 470.655 232.579C468.271 234.83 465.523 236.519 462.41 237.645C459.298 238.705 456.053 239.234 452.675 239.234C449.298 239.234 446.053 238.705 442.941 237.645C439.828 236.519 437.047 234.83 434.596 232.579C432.212 230.261 430.292 227.347 428.835 223.837C427.378 220.328 426.65 216.155 426.65 211.321C426.65 206.487 427.378 202.315 428.835 198.805C430.292 195.295 432.212 192.414 434.596 190.163C437.047 187.845 439.828 186.123 442.941 184.997C446.053 183.871 449.298 183.309 452.675 183.309Z" fill="white"/>
<path d="M401.783 170.396H413.604V184.501H424.332V193.044H413.604V222.149C413.604 224.864 414.034 226.685 414.895 227.613C415.756 228.474 417.445 228.904 419.961 228.904H424.233V237.943H415.491C412.644 237.943 410.326 237.745 408.538 237.347C406.75 236.884 405.359 236.122 404.366 235.063C403.372 234.003 402.677 232.579 402.28 230.791C401.949 228.937 401.783 226.652 401.783 223.937V193.044H393.836V184.501H401.783V170.396Z" fill="white"/>
<path d="M354.698 205.262C351.851 204.666 349.169 203.871 346.652 202.878C344.136 201.818 341.917 200.461 339.997 198.805C338.142 197.15 336.652 195.196 335.527 192.944C334.467 190.627 333.937 187.944 333.937 184.898C333.937 181.521 334.732 178.574 336.321 176.057C337.911 173.541 339.997 171.455 342.579 169.799C345.162 168.077 348.076 166.786 351.321 165.925C354.566 165.064 357.844 164.634 361.155 164.634C364.731 164.634 368.075 165.064 371.188 165.925C374.3 166.72 377.082 168.011 379.532 169.799C381.982 171.521 384.035 173.74 385.691 176.455C387.413 179.104 388.638 182.315 389.366 186.09H377.148C376.618 183.905 375.79 182.117 374.665 180.726C373.539 179.269 372.214 178.143 370.691 177.349C369.168 176.488 367.512 175.892 365.724 175.561C364.003 175.163 362.248 174.965 360.46 174.965C359.069 174.965 357.546 175.13 355.89 175.461C354.301 175.792 352.811 176.355 351.42 177.15C350.096 177.878 348.97 178.839 348.043 180.031C347.116 181.223 346.652 182.713 346.652 184.501C346.652 187.282 347.645 189.434 349.632 190.958C351.685 192.415 354.268 193.441 357.38 194.037L366.221 195.726C369.4 196.322 372.446 197.116 375.36 198.11C378.34 199.037 380.956 200.328 383.207 201.984C385.525 203.639 387.379 205.692 388.77 208.143C390.161 210.593 390.856 213.639 390.856 217.281C390.856 220.924 390.028 224.136 388.373 226.917C386.717 229.632 384.532 231.917 381.817 233.771C379.168 235.559 376.121 236.917 372.678 237.844C369.3 238.771 365.824 239.235 362.248 239.235C357.943 239.235 354.003 238.672 350.427 237.546C346.917 236.42 343.838 234.798 341.189 232.678C338.606 230.493 336.52 227.844 334.93 224.732C333.341 221.619 332.348 218.076 331.95 214.103H344.367C345.493 219.07 347.612 222.778 350.725 225.228C353.837 227.679 357.877 228.904 362.844 228.904C364.963 228.904 366.95 228.672 368.804 228.208C370.724 227.745 372.38 227.049 373.771 226.122C375.161 225.195 376.254 224.069 377.049 222.745C377.843 221.354 378.241 219.798 378.241 218.076C378.241 216.222 377.777 214.666 376.85 213.407C375.989 212.149 374.83 211.09 373.373 210.229C371.983 209.368 370.393 208.706 368.605 208.242C366.883 207.712 365.161 207.282 363.44 206.951L354.698 205.262Z" fill="white"/>
<path d="M302.617 239.234C298.246 239.234 294.372 238.473 290.994 236.95C287.683 235.426 284.902 233.374 282.65 230.791C280.465 228.208 278.776 225.195 277.584 221.751C276.458 218.308 275.896 214.665 275.896 210.824C275.896 206.785 276.525 203.109 277.783 199.798C279.041 196.421 280.796 193.507 283.048 191.057C285.299 188.606 288.014 186.719 291.193 185.395C294.372 184.004 297.915 183.309 301.822 183.309C305.994 183.309 309.703 184.103 312.948 185.693C316.192 187.282 318.908 189.467 321.093 192.249C323.278 195.03 324.901 198.341 325.96 202.182C327.02 205.957 327.417 210.096 327.152 214.599H287.915C287.981 216.718 288.379 218.705 289.107 220.559C289.902 222.347 290.928 223.904 292.186 225.228C293.445 226.553 294.902 227.579 296.557 228.307C298.279 229.036 300.133 229.4 302.12 229.4C308.544 229.4 312.815 226.917 314.934 221.95H326.556C325.96 224.069 325.033 226.188 323.775 228.307C322.517 230.36 320.894 232.215 318.908 233.87C316.987 235.46 314.669 236.751 311.954 237.744C309.239 238.738 306.127 239.234 302.617 239.234ZM301.822 192.547C300.166 192.547 298.511 192.812 296.855 193.341C295.266 193.871 293.809 194.699 292.484 195.825C291.226 196.884 290.167 198.275 289.306 199.997C288.445 201.653 287.981 203.639 287.915 205.957H315.133C315.067 203.904 314.669 202.05 313.941 200.394C313.212 198.672 312.252 197.249 311.06 196.123C309.868 194.997 308.477 194.136 306.888 193.54C305.299 192.878 303.61 192.547 301.822 192.547Z" fill="white"/>
<path fill-rule="evenodd" clip-rule="evenodd" d="M570.338 195.726H535.968V165.926H523.352V237.944H535.968V206.157H570.338V237.944H582.953V165.926H570.338V195.726ZM572.407 167.995V197.796H533.898V167.995H525.422V235.874H533.898V204.087H572.407V235.874H580.884V167.995H572.407ZM606.025 205.622V167.995H597.548V235.874H606.025V215.088L618.87 201.032L642.373 235.874H652.251L624.335 195.046L649.002 167.995H639.616L606.025 205.622ZM638.69 165.926H653.689L626.968 195.23L656.173 237.944H641.272L618.624 204.369L608.095 215.891V237.944H595.479V165.926H608.095V200.196L638.69 165.926Z" fill="white"/>
<defs>
<clipPath id="clip0_33_472">
<rect width="573.58" height="165.06" fill="white" transform="translate(0 0.574219)"/>
</clipPath>
</defs>
</svg>
