<svg width="50" height="50" viewBox="0 0 50 50" fill="none" xmlns="http://www.w3.org/2000/svg">
<path d="M25 49.9999C38.8071 49.9999 49.9999 38.8071 49.9999 25C49.9999 11.1929 38.8071 0 25 0C11.1929 0 0 11.1929 0 25C0 38.8071 11.1929 49.9999 25 49.9999Z" fill="#0090FF"/>
<path d="M41.8498 28.4409C41.8498 31.2509 39.4799 33.6109 36.5299 33.6109C34.9499 33.6109 33.5398 32.9409 32.5798 31.8809L26.8999 34.4708C26.9999 34.8508 27.0599 35.2708 27.0599 35.6808C27.0599 36.3708 26.9099 37.0408 26.6599 37.6608L30.5299 38.5508C30.6799 38.0908 31.1199 37.7508 31.6399 37.7508C32.2899 37.7508 32.8198 38.2808 32.8198 38.9308C32.8198 39.5808 32.2899 40.1108 31.6399 40.1108C31.2099 40.1108 30.8298 39.8708 30.6298 39.5308L26.1799 38.5008C25.2299 39.9008 23.5898 40.8508 21.7298 40.8508C19.2898 40.8508 17.2698 39.2408 16.6099 37.1108L12.1499 36.7108C11.9299 37.3208 11.3399 37.7408 10.6399 37.7408C9.73989 37.7408 9.00989 37.0208 9.00989 36.1108C9.00989 35.2008 9.72989 34.4808 10.6399 34.4808C11.4199 34.4808 12.0899 35.0408 12.2399 35.7808L16.4399 36.1508C16.4299 35.9908 16.4099 35.8208 16.4099 35.6608C16.4099 32.8509 18.7798 30.4909 21.7298 30.4909C23.8998 30.5909 25.7498 31.8209 26.5798 33.5809L31.9798 31.1009C31.4798 30.3209 31.1998 29.4009 31.1998 28.4209C31.1998 26.3909 32.4298 24.5909 34.2298 23.7609L30.4698 16.9909C29.7898 17.3009 29.0398 17.4809 28.2398 17.4809C26.6698 17.4809 25.2698 16.8109 24.3099 15.7709L18.3799 18.4609C18.6299 19.0809 18.7799 19.7509 18.7799 20.4409C18.7799 21.5809 18.3799 22.6609 17.7199 23.5209L21.1799 25.9709C21.4599 25.7509 21.7999 25.6209 22.1899 25.6209C23.0899 25.6209 23.8199 26.3409 23.8199 27.2509C23.8199 28.1609 23.0999 28.8809 22.1899 28.8809C21.2799 28.8809 20.5599 28.1609 20.5599 27.2509C20.5599 27.0709 20.5899 26.9009 20.6499 26.7309L17.0998 24.2009C16.1498 25.0709 14.8799 25.6209 13.4599 25.6209C10.4999 25.6209 8.13989 23.2509 8.13989 20.4509C8.13989 17.8509 10.1699 15.6309 12.8099 15.3209L12.9599 11.7609C12.5599 11.5709 12.2799 11.1709 12.2799 10.7009C12.2799 10.0509 12.8099 9.52089 13.4599 9.52089C14.1099 9.52089 14.6399 10.0509 14.6399 10.7009C14.6399 11.2009 14.3099 11.6309 13.8699 11.8109L13.7499 15.3009C15.5099 15.3909 17.0298 16.3209 17.9198 17.6709L23.7199 15.0409C23.2199 14.2609 22.9198 13.3209 22.9198 12.3309C22.9198 9.52089 25.2898 7.16089 28.2398 7.16089C31.3398 7.16089 33.5599 9.53089 33.5599 12.3309C33.5599 12.3909 33.5599 12.4609 33.5499 12.5209L38.1298 13.9409C38.3398 13.6709 38.6599 13.5109 39.0299 13.5109C39.6799 13.5109 40.2098 14.0409 40.2098 14.6909C40.2098 15.3409 39.6799 15.8709 39.0299 15.8709C38.4199 15.8709 37.9198 15.4009 37.8598 14.8109L33.4199 13.4509C33.1399 14.7209 32.3599 15.8309 31.2799 16.5509L35.0898 23.4509C35.5298 23.3209 36.0198 23.2609 36.5098 23.2609C39.4698 23.2609 41.8298 25.6309 41.8298 28.4309L41.8498 28.4409Z" fill="white"/>
</svg>
