<svg width="203" height="26" viewBox="0 0 203 26" fill="none" xmlns="http://www.w3.org/2000/svg">
<g clip-path="url(#clip0_2345_1125)">
<path d="M21.818 0.341177V24.9845H16.0674V14.5657H6.0544V24.9845H0.303711V0.341177H6.0544V10.6417H16.0674V0.341177H21.818Z" fill="white"/>
<path d="M49.7712 12.6544C49.7712 14.436 49.4611 16.0935 48.841 17.6271C48.2321 19.1606 47.3695 20.4968 46.2532 21.6356C45.1368 22.7632 43.7894 23.6484 42.2108 24.2911C40.6434 24.9338 38.9013 25.2552 36.9844 25.2552C35.0675 25.2552 33.3198 24.9338 31.7411 24.2911C30.1625 23.6484 28.8094 22.7632 27.6818 21.6356C26.5655 20.4968 25.6973 19.1606 25.0771 17.6271C24.4682 16.0935 24.1638 14.436 24.1638 12.6544C24.1638 10.8728 24.4682 9.21527 25.0771 7.68176C25.6973 6.14824 26.5655 4.81769 27.6818 3.6901C28.8094 2.56252 30.1625 1.67737 31.7411 1.03464C33.3198 0.391919 35.0675 0.0705566 36.9844 0.0705566C38.9013 0.0705566 40.6434 0.397556 42.2108 1.05155C43.7894 1.69428 45.1368 2.57943 46.2532 3.70702C47.3695 4.8346 48.2321 6.16515 48.841 7.69867C49.4611 9.23218 49.7712 10.8841 49.7712 12.6544ZM43.919 12.6544C43.919 11.4366 43.7612 10.3429 43.4455 9.37313C43.1297 8.39213 42.6731 7.56336 42.0754 6.88681C41.4891 6.21026 40.7674 5.69157 39.9105 5.33074C39.0535 4.96991 38.0782 4.7895 36.9844 4.7895C35.8794 4.7895 34.8927 4.96991 34.0245 5.33074C33.1675 5.69157 32.4402 6.21026 31.8426 6.88681C31.2563 7.56336 30.8052 8.39213 30.4895 9.37313C30.1738 10.3429 30.0159 11.4366 30.0159 12.6544C30.0159 13.8835 30.1738 14.9885 30.4895 15.9695C30.8052 16.9392 31.2563 17.7624 31.8426 18.4389C32.4402 19.1155 33.1675 19.6342 34.0245 19.995C34.8927 20.3445 35.8794 20.5193 36.9844 20.5193C38.0782 20.5193 39.0535 20.3445 39.9105 19.995C40.7674 19.6342 41.4891 19.1155 42.0754 18.4389C42.6731 17.7624 43.1297 16.9392 43.4455 15.9695C43.7612 14.9885 43.919 13.8835 43.919 12.6544Z" fill="white"/>
<path d="M73.635 0.341177V24.9845H70.6581C70.2184 24.9845 69.8463 24.9169 69.5418 24.7816C69.2487 24.635 68.9555 24.3869 68.6623 24.0374L57.0426 9.3393C57.0877 9.77906 57.1158 10.2075 57.1271 10.6248C57.1497 11.0307 57.1609 11.4141 57.1609 11.7749V24.9845H52.1206V0.341177H55.1313C55.3794 0.341177 55.588 0.352453 55.7571 0.375005C55.9262 0.397556 56.0785 0.44266 56.2138 0.510315C56.3491 0.566694 56.4788 0.651263 56.6028 0.764021C56.7268 0.87678 56.8678 1.029 57.0256 1.22069L68.7469 16.0202C68.6905 15.5467 68.651 15.09 68.6285 14.6502C68.6059 14.1992 68.5947 13.7764 68.5947 13.3817V0.341177H73.635Z" fill="white"/>
<path d="M89.2411 12.2146H98.0024V22.6166C96.7395 23.5412 95.3921 24.2122 93.96 24.6294C92.5393 25.0466 91.0509 25.2552 89.4948 25.2552C87.4651 25.2552 85.6159 24.9394 83.9471 24.308C82.2895 23.6653 80.8688 22.7858 79.6848 21.6694C78.5008 20.5419 77.5875 19.2113 76.9448 17.6778C76.3021 16.133 75.9807 14.4585 75.9807 12.6544C75.9807 10.8164 76.2851 9.1307 76.894 7.59719C77.5029 6.05239 78.3712 4.72184 79.4988 3.60554C80.6376 2.48923 82.0076 1.62099 83.6088 1.00081C85.2213 0.380642 87.0198 0.0705566 89.0043 0.0705566C90.0304 0.0705566 90.9945 0.155126 91.8966 0.324263C92.7986 0.493401 93.6274 0.724556 94.3829 1.01773C95.1496 1.3109 95.8487 1.66045 96.4802 2.06638C97.1116 2.47231 97.6754 2.91207 98.1716 3.38566L96.514 5.90581C96.2547 6.30046 95.9164 6.54289 95.4992 6.6331C95.0933 6.72331 94.6535 6.62183 94.1799 6.32865C93.7289 6.05803 93.3004 5.82688 92.8945 5.63519C92.4998 5.43222 92.0939 5.26872 91.6767 5.14469C91.2595 5.02065 90.8197 4.93045 90.3574 4.87407C89.8951 4.81769 89.3764 4.7895 88.8013 4.7895C87.7301 4.7895 86.7661 4.98119 85.9091 5.36457C85.0521 5.73667 84.3192 6.26663 83.7103 6.95446C83.1127 7.64229 82.6504 8.47107 82.3234 9.44079C81.9964 10.3992 81.8329 11.4704 81.8329 12.6544C81.8329 13.9624 82.0133 15.1238 82.3741 16.1386C82.7349 17.1535 83.2423 18.0104 83.8963 18.7095C84.5616 19.4086 85.3509 19.9442 86.2643 20.3163C87.1889 20.6772 88.2094 20.8576 89.3257 20.8576C90.0135 20.8576 90.6337 20.7899 91.1862 20.6546C91.75 20.5193 92.2969 20.3389 92.8268 20.1134V16.3754H90.3912C90.0304 16.3754 89.7485 16.2796 89.5455 16.0879C89.3426 15.8962 89.2411 15.6538 89.2411 15.3606V12.2146Z" fill="white"/>
<path d="M113.364 10.3203H114.277C115.123 10.3203 115.731 10.0553 116.104 9.52536L121.651 1.4744C121.978 1.04592 122.328 0.752745 122.7 0.594884C123.083 0.425746 123.557 0.341177 124.121 0.341177H129.093L121.787 10.3034C121.268 10.9912 120.71 11.4874 120.112 11.7918C120.541 11.9497 120.93 12.1695 121.279 12.4514C121.629 12.7333 121.956 13.0998 122.26 13.5508L129.702 24.9845H124.594C124.267 24.9845 123.985 24.962 123.749 24.9169C123.523 24.8718 123.326 24.8041 123.157 24.7139C122.988 24.6237 122.841 24.5166 122.717 24.3926C122.593 24.2573 122.474 24.105 122.362 23.9359L116.78 15.3606C116.577 15.0449 116.318 14.825 116.002 14.701C115.698 14.5657 115.28 14.498 114.751 14.498H113.364V24.9845H107.647V0.341177H113.364V10.3203Z" fill="white"/>
<path d="M153.613 12.6544C153.613 14.436 153.302 16.0935 152.682 17.6271C152.073 19.1606 151.211 20.4968 150.094 21.6356C148.978 22.7632 147.631 23.6484 146.052 24.2911C144.485 24.9338 142.743 25.2552 140.826 25.2552C138.909 25.2552 137.161 24.9338 135.582 24.2911C134.004 23.6484 132.651 22.7632 131.523 21.6356C130.407 20.4968 129.539 19.1606 128.918 17.6271C128.31 16.0935 128.005 14.436 128.005 12.6544C128.005 10.8728 128.31 9.21527 128.918 7.68176C129.539 6.14824 130.407 4.81769 131.523 3.6901C132.651 2.56252 134.004 1.67737 135.582 1.03464C137.161 0.391919 138.909 0.0705566 140.826 0.0705566C142.743 0.0705566 144.485 0.397556 146.052 1.05155C147.631 1.69428 148.978 2.57943 150.094 3.70702C151.211 4.8346 152.073 6.16515 152.682 7.69867C153.302 9.23218 153.613 10.8841 153.613 12.6544ZM147.76 12.6544C147.76 11.4366 147.603 10.3429 147.287 9.37313C146.971 8.39213 146.514 7.56336 145.917 6.88681C145.33 6.21026 144.609 5.69157 143.752 5.33074C142.895 4.96991 141.919 4.7895 140.826 4.7895C139.721 4.7895 138.734 4.96991 137.866 5.33074C137.009 5.69157 136.282 6.21026 135.684 6.88681C135.098 7.56336 134.647 8.39213 134.331 9.37313C134.015 10.3429 133.857 11.4366 133.857 12.6544C133.857 13.8835 134.015 14.9885 134.331 15.9695C134.647 16.9392 135.098 17.7624 135.684 18.4389C136.282 19.1155 137.009 19.6342 137.866 19.995C138.734 20.3445 139.721 20.5193 140.826 20.5193C141.919 20.5193 142.895 20.3445 143.752 19.995C144.609 19.6342 145.33 19.1155 145.917 18.4389C146.514 17.7624 146.971 16.9392 147.287 15.9695C147.603 14.9885 147.76 13.8835 147.76 12.6544Z" fill="white"/>
<path d="M177.476 0.341177V24.9845H174.499C174.06 24.9845 173.688 24.9169 173.383 24.7816C173.09 24.635 172.797 24.3869 172.504 24.0374L160.884 9.3393C160.929 9.77906 160.957 10.2075 160.968 10.6248C160.991 11.0307 161.002 11.4141 161.002 11.7749V24.9845H155.962V0.341177H158.973C159.221 0.341177 159.429 0.352453 159.598 0.375005C159.768 0.397556 159.92 0.44266 160.055 0.510315C160.19 0.566694 160.32 0.651263 160.444 0.764021C160.568 0.87678 160.709 1.029 160.867 1.22069L172.588 16.0202C172.532 15.5467 172.492 15.09 172.47 14.6502C172.447 14.1992 172.436 13.7764 172.436 13.3817V0.341177H177.476Z" fill="white"/>
<path d="M193.082 12.2146H201.844V22.6166C200.581 23.5412 199.233 24.2122 197.801 24.6294C196.381 25.0466 194.892 25.2552 193.336 25.2552C191.306 25.2552 189.457 24.9394 187.788 24.308C186.131 23.6653 184.71 22.7858 183.526 21.6694C182.342 20.5419 181.429 19.2113 180.786 17.6778C180.143 16.133 179.822 14.4585 179.822 12.6544C179.822 10.8164 180.126 9.1307 180.735 7.59719C181.344 6.05239 182.212 4.72184 183.34 3.60554C184.479 2.48923 185.849 1.62099 187.45 1.00081C189.063 0.380642 190.861 0.0705566 192.846 0.0705566C193.872 0.0705566 194.836 0.155126 195.738 0.324263C196.64 0.493401 197.469 0.724556 198.224 1.01773C198.991 1.3109 199.69 1.66045 200.322 2.06638C200.953 2.47231 201.517 2.91207 202.013 3.38566L200.355 5.90581C200.096 6.30046 199.758 6.54289 199.341 6.6331C198.935 6.72331 198.495 6.62183 198.021 6.32865C197.57 6.05803 197.142 5.82688 196.736 5.63519C196.341 5.43222 195.935 5.26872 195.518 5.14469C195.101 5.02065 194.661 4.93045 194.199 4.87407C193.736 4.81769 193.218 4.7895 192.643 4.7895C191.571 4.7895 190.607 4.98119 189.75 5.36457C188.893 5.73667 188.161 6.26663 187.552 6.95446C186.954 7.64229 186.492 8.47107 186.165 9.44079C185.838 10.3992 185.674 11.4704 185.674 12.6544C185.674 13.9624 185.855 15.1238 186.215 16.1386C186.576 17.1535 187.084 18.0104 187.738 18.7095C188.403 19.4086 189.192 19.9442 190.106 20.3163C191.03 20.6772 192.051 20.8576 193.167 20.8576C193.855 20.8576 194.475 20.7899 195.027 20.6546C195.591 20.5193 196.138 20.3389 196.668 20.1134V16.3754H194.233C193.872 16.3754 193.59 16.2796 193.387 16.0879C193.184 15.8962 193.082 15.6538 193.082 15.3606V12.2146Z" fill="white"/>
</g>
<defs>
<clipPath id="clip0_2345_1125">
<rect width="201.709" height="25.1846" fill="white" transform="translate(0.303711 0.0705566)"/>
</clipPath>
</defs>
</svg>
