<svg width="490" height="178" viewBox="0 0 490 178" fill="none" xmlns="http://www.w3.org/2000/svg">
<g clip-path="url(#clip0_2345_1121)">
<path fill-rule="evenodd" clip-rule="evenodd" d="M245.092 96.0113C233.979 96.0093 223.212 92.1521 214.625 85.0975C206.039 78.043 200.166 68.2281 198.009 57.3269C195.851 46.4258 197.542 35.1137 202.793 25.3201C208.045 15.5265 216.531 7.8582 226.805 3.62304C237.079 -0.612116 248.504 -1.15173 259.131 2.09623C269.759 5.3442 278.93 12.1786 285.081 21.4336C291.232 30.6886 293.982 41.7909 292.861 52.8469C291.741 63.9029 286.819 74.2277 278.936 82.0601C269.932 90.9863 257.771 95.9996 245.092 96.0113Z" fill="#0090FF"/>
<path fill-rule="evenodd" clip-rule="evenodd" d="M249.491 42.4698L262.006 44.2297C262.352 42.9662 262.66 41.8757 263.006 40.6422L250.048 38.7169C251.507 33.4523 252.846 28.3456 254.417 23.3819C255.058 21.7111 256.051 20.1977 257.328 18.9446C257.662 18.5672 258.081 18.2753 258.551 18.0934C259.021 17.9115 259.527 17.8449 260.028 17.8992C260.53 17.9503 261.012 18.1204 261.434 18.3955C261.857 18.6663 262.208 19.0353 262.457 19.471C262.991 20.267 263.584 21.0213 264.232 21.7273C264.585 22.1685 265.093 22.4579 265.653 22.5362C266.212 22.6145 266.78 22.4758 267.241 22.1484C267.805 21.6069 267.79 20.3585 267.835 19.4108C267.835 19.0348 267.414 18.5836 267.083 18.2376C266.371 17.4794 265.511 16.8752 264.556 16.4626C263.601 16.0499 262.572 15.8375 261.532 15.8384C256.726 15.6279 253.259 18.0947 250.589 21.7874C247.919 25.4802 246.731 29.7596 245.453 34.0164C245.077 35.2723 244.753 36.5208 244.392 37.8896L230.629 35.8966C230.471 37.145 230.306 38.3108 230.148 39.5592L243.587 41.6275C242.993 44.177 242.429 46.5612 241.843 48.9904L228.997 47.2004C228.824 48.5692 228.696 49.5996 228.531 50.8104L241.023 52.6982C241.053 53.0284 241.053 53.3607 241.023 53.6909C239.714 59.2864 238.496 64.9722 237.007 70.4925C236.431 73.2466 235.002 75.7491 232.923 77.6449C232.574 78.0109 232.144 78.2892 231.667 78.4571C230.948 78.7149 230.161 78.7123 229.444 78.4498C228.726 78.1874 228.124 77.6816 227.741 77.0206C227.223 76.0999 226.572 75.261 225.808 74.5312C225.214 74.095 223.89 73.8393 223.454 74.1853C223.112 74.5123 222.841 74.9059 222.657 75.3418C222.474 75.7778 222.381 76.2468 222.386 76.7198C222.581 77.5964 223.103 78.3656 223.845 78.8708C224.913 79.6551 226.141 80.1923 227.442 80.4433C228.743 80.6944 230.083 80.653 231.366 80.3223C233.46 79.9123 235.426 79.0048 237.096 77.6762C238.766 76.3477 240.092 74.6371 240.963 72.6886C242.448 69.5233 243.704 66.256 244.723 62.9115C245.716 59.9032 246.385 56.8121 247.213 53.6608L260.306 55.5636C260.667 54.3152 260.991 53.1645 261.337 51.9386L247.912 49.9606C248.476 47.3132 248.965 45.0043 249.491 42.4698Z" fill="white"/>
<mask id="mask0_2345_1121" style="mask-type:alpha" maskUnits="userSpaceOnUse" x="125" y="6" width="75" height="84">
<path fill-rule="evenodd" clip-rule="evenodd" d="M196.198 68.0713C193.12 60.6457 191.782 52.6144 192.287 44.5921C192.791 36.5698 195.125 28.7694 199.109 21.7879C193.83 15.3159 186.716 10.5932 178.703 8.24111C170.69 5.88898 162.152 6.01757 154.213 8.60997C146.274 11.2024 139.306 16.1371 134.225 22.7652C129.144 29.3932 126.188 37.404 125.746 45.7438C125.304 54.0836 127.398 62.3618 131.75 69.4894C136.103 76.617 142.511 82.2602 150.131 85.6766C157.752 89.093 166.229 90.1227 174.446 88.6301C182.663 87.1376 190.235 83.1927 196.168 77.3144C197.212 76.2733 198.199 75.1762 199.124 74.0278C198.026 72.105 197.049 70.1156 196.198 68.0713Z" fill="white"/>
</mask>
<g mask="url(#mask0_2345_1121)">
<path d="M167.113 89.296C189.991 89.296 208.538 70.7495 208.538 47.8713C208.538 24.993 189.991 6.44653 167.113 6.44653C144.235 6.44653 125.688 24.993 125.688 47.8713C125.688 70.7495 144.235 89.296 167.113 89.296Z" fill="#037D4B"/>
<path d="M148.998 50.5578L148.987 50.5593L148.444 50.6363L140.017 51.7228C140.021 51.0255 139.979 50.4509 139.861 49.8963C139.769 49.4628 139.633 49.0504 139.445 48.6084L150.948 48.6963V50.2965L149.545 50.5099L149.008 50.5569L148.998 50.5578Z" fill="white"/>
<path d="M139.314 47.8164C139.422 47.2575 139.477 46.7672 139.477 46.268C139.476 45.786 139.423 45.3058 139.323 44.7583L150.948 46.2671V47.9053L139.314 47.8164Z" fill="white"/>
<path d="M150.948 43.8793V45.4695L139.393 43.9698C139.605 43.4388 139.747 42.9628 139.828 42.4672C139.908 41.9778 139.927 41.4809 139.902 40.907L150.948 43.8793Z" fill="white"/>
<path d="M150.723 42.9999L140.263 40.1849C140.672 39.7813 141.001 39.3935 141.276 38.9677C141.627 38.4245 141.879 37.8354 142.101 37.0994L148.226 40.0544L148.865 40.3741L148.874 40.3783L149.371 40.6116L150.128 41.2923L150.723 42.9999Z" fill="white"/>
<path d="M149.493 39.6552L148.796 39.4549V37.1423C148.844 37.128 148.914 37.1166 148.996 37.1166C149.079 37.1166 149.445 37.128 149.493 37.1423V39.6552Z" fill="white"/>
<path d="M149.493 51.3344V56.4629H148.895V51.3712L149.087 51.3439L149.493 51.3344Z" fill="white"/>
<path d="M165.171 57.2538V63.1003C161.354 63.3079 157.979 63.316 155.427 63.1411C154.108 63.0507 153.02 62.9121 152.208 62.7306C151.801 62.6398 151.474 62.5403 151.226 62.4354C150.981 62.3323 150.843 62.236 150.775 62.1627L148.549 59.1758V57.2538H165.171Z" fill="white"/>
<path d="M142.85 58.5749L147.925 59.6625L150.151 62.6498L150.17 62.6737C150.35 62.8797 150.618 63.0373 150.918 63.1641C151.225 63.2938 151.602 63.4057 152.035 63.5025C152.902 63.6963 154.035 63.8385 155.373 63.9302C158.052 64.1138 161.599 64.098 165.589 63.8691C167.272 63.7726 169.034 63.6381 170.844 63.4645C171.605 63.3915 172.375 63.3117 173.15 63.2248C177.714 62.7136 182.494 61.9598 187.013 60.9446C187.373 60.8636 187.732 60.7809 188.089 60.6965C190.24 60.1883 192.324 59.6189 194.285 58.9861C190.095 62.4468 187.571 64.8624 184.386 68.9621H153.697C151.201 68.9621 148.875 67.294 146.931 65.0576C145.117 62.9698 143.695 60.4546 142.85 58.5749Z" fill="white"/>
<path d="M172.711 62.4776C172.205 62.5331 171.702 62.5855 171.202 62.6349V53.1607L172.711 52.9288V62.4776Z" fill="white"/>
<path d="M187.603 54.5143V59.9982C187.509 60.02 187.119 60.0417 187.025 60.0632V54.5505L187.603 54.5143Z" fill="white"/>
<path d="M188.887 53.5123L187.94 53.6734L186.875 53.8105L178.534 54.8928C178.615 54.3108 178.593 53.795 178.47 53.2601C178.369 52.8214 178.201 52.3777 177.979 51.8844H188.887V53.5123Z" fill="white"/>
<path d="M177.901 51.0934C178.073 50.5107 178.156 49.996 178.151 49.4729C178.145 48.9745 178.059 48.4841 177.909 47.9377L188.887 49.3841V51.0934H177.901Z" fill="white"/>
<path d="M188.887 46.8851V48.5863L178.015 47.1538C178.322 46.6348 178.545 46.1604 178.68 45.6614C178.816 45.154 178.856 44.6385 178.815 44.0446L188.887 46.8851Z" fill="white"/>
<path d="M188.686 46.0065L179.158 43.3194C179.624 42.8763 179.978 42.4678 180.254 42.0416C180.589 41.5271 180.801 41.0028 180.974 40.3896L186.728 43.5675L187.765 44.1942L188.247 44.6113L188.686 46.0065Z" fill="white"/>
<path d="M187.603 43.1719L187.025 42.8042V40.3747C187.058 40.3684 187.399 40.5617 187.452 40.5631C187.511 40.5647 187.563 40.5733 187.603 40.584V43.1719Z" fill="white"/>
<path d="M174.667 35.1123L175.122 37.4204L157.773 32.3834C158.779 31.6192 159.499 30.8958 160.019 30.0804C160.605 29.1632 160.92 28.1575 161.137 26.9046L174.667 35.1123Z" fill="white"/>
<path d="M157.343 33.0823L175.24 38.2784V40.6057L156.098 37.6821C156.58 36.9038 156.933 36.2142 157.143 35.4858C157.355 34.7483 157.417 33.9906 157.343 33.0823Z" fill="white"/>
<path d="M155.904 38.4526L175.24 41.4058V44.668L155.193 43.2221C155.552 42.3768 155.79 41.6444 155.906 40.8904C156.024 40.1285 156.016 39.3618 155.904 38.4526Z" fill="white"/>
<path d="M155.198 44.0156L175.24 45.461V47.922L155.164 48.6285C155.437 47.7897 155.603 47.0594 155.617 46.3177C155.632 45.5804 155.496 44.8538 155.198 44.0156Z" fill="white"/>
<path d="M156.055 51.409C155.927 50.7263 155.665 50.0958 155.284 49.4157L175.17 48.7159L174.676 51.8266L170.754 52.4292L155.946 54.1192C156.162 53.0651 156.206 52.216 156.055 51.409Z" fill="white"/>
<path d="M172.565 27.9901C172.711 28.0655 172.711 28.1327 172.711 28.1327V33.0006L171.202 32.0854V28.1329C171.202 28.1081 171.207 28.0514 171.346 27.9803C171.489 27.9073 171.708 27.8606 171.953 27.8626C172.198 27.8646 172.42 27.9148 172.565 27.9901Z" fill="white"/>
</g>
<mask id="mask1_2345_1121" style="mask-type:alpha" maskUnits="userSpaceOnUse" x="290" y="6" width="75" height="84">
<path fill-rule="evenodd" clip-rule="evenodd" d="M357.641 25.1193C354.267 19.9876 349.794 15.6701 344.546 12.4791C339.299 9.28808 333.408 7.30336 327.299 6.66852C321.19 6.03368 315.017 6.76459 309.225 8.80838C303.434 10.8522 298.169 14.1577 293.811 18.4859C292.764 19.5288 291.773 20.6258 290.841 21.7725C295.367 29.7352 297.746 38.7371 297.746 47.8962C297.746 57.0553 295.367 66.0573 290.841 74.0199C297.562 82.2084 307.164 87.5118 317.674 88.8405C328.184 90.1692 338.804 87.4222 347.352 81.164C355.9 74.9059 361.726 65.6117 363.634 55.1912C365.542 44.7707 363.387 34.0151 357.611 25.1344L357.641 25.1193Z" fill="white"/>
</mask>
<g mask="url(#mask1_2345_1121)">
<path d="M322.951 89.1678C345.794 89.1678 364.312 70.65 364.312 47.8072C364.312 24.9643 345.794 6.44653 322.951 6.44653C300.108 6.44653 281.591 24.9643 281.591 47.8072C281.591 70.65 300.108 89.1678 322.951 89.1678Z" fill="#CC3339"/>
<path fill-rule="evenodd" clip-rule="evenodd" d="M335.966 28.8577V24.1672C335.731 24.959 335.515 26.3701 335.515 28.8577V72.0697H344.454V28.8577C344.454 26.0987 344.159 24.6689 343.872 23.9401V28.8577H343.082V23.261H342.093V28.8577H341.303V23.261H340.313V28.8577H339.524V23.261H338.534V28.8577H337.745V23.261H336.755V28.8577H335.966ZM334.114 29.2525H334.726V72.0697H332.422V38.0114H333.563L334.114 29.2525ZM345.243 72.0697V29.2525H345.705L345.963 38.0114H347.088V72.0697H345.243ZM336.163 31.0317H343.704V30.2422H336.163V31.0317ZM336.163 32.7631H343.704V31.9736H336.163V32.7631ZM336.163 34.4909H343.704V33.7014H336.163V34.4909ZM336.163 36.1794H343.704V35.3899H336.163V36.1794ZM336.163 37.9108H343.704V37.1213H336.163V37.9108ZM336.163 39.6422H343.704V38.8527H336.163V39.6422ZM336.163 41.3736H343.704V40.5841H336.163V41.3736ZM336.163 43.105H343.704V42.3155H336.163V43.105ZM336.163 44.8365H343.704V44.0469H336.163V44.8365ZM336.163 46.5679H343.704V45.7783H336.163V46.5679ZM336.163 48.2993H343.704V47.5098H336.163V48.2993ZM336.163 50.0307H343.704V49.2412H336.163V50.0307ZM336.163 51.7621H343.704V50.9726H336.163V51.7621ZM336.163 53.4935H343.704V52.704H336.163V53.4935ZM336.163 55.2249H343.704V54.4354H336.163V55.2249ZM336.163 56.9563H343.704V56.1668H336.163V56.9563ZM336.163 58.6877H343.704V57.8982H336.163V58.6877ZM336.163 60.4191H343.704V59.6296H336.163V60.4191ZM336.163 62.1506H343.704V61.361H336.163V62.1506ZM336.163 63.882H343.704V63.0924H336.163V63.882ZM336.163 65.6134H343.704V64.8239H336.163V65.6134ZM336.163 67.3448H343.704V66.5553H336.163V67.3448ZM336.163 69.0762H343.704V68.2867H336.163V69.0762ZM336.163 70.8076H343.704V70.0181H336.163V70.8076Z" fill="#FCCB36"/>
<path fill-rule="evenodd" clip-rule="evenodd" d="M320.382 35.5432L319.211 36.7142V27.3225H320.382V29.8515H326.01V27.3225H327.035V36.7552L326.01 35.7304V30.8213H320.382V35.5432ZM317.795 39.2472L322.708 34.3343V44.1602L317.795 39.2472ZM323.497 44.1602V34.3343L328.41 39.2472L323.497 44.1602ZM323.661 45.1132L328.574 40.2002V50.0261L323.661 45.1132ZM323.497 46.0662L328.41 50.9792L323.497 55.8921V46.0662ZM322.708 46.0662V55.8921L317.795 50.9792L322.708 46.0662ZM322.544 45.1132L317.631 50.0261V40.2002L322.544 45.1132ZM322.544 56.8451L317.631 51.9322V61.7581L322.544 56.8451ZM317.631 72.1683V63.6641L322.708 68.7406V72.1683H317.631ZM328.574 63.6641L323.497 68.7406V72.1683H328.574V63.6641ZM328.574 51.9322V61.7581L323.661 56.8451L328.574 51.9322ZM323.497 67.624V57.7982L328.41 62.7111L323.497 67.624ZM317.795 62.7111L322.708 67.624V57.7982L317.795 62.7111Z" fill="#FCCB36"/>
<path fill-rule="evenodd" clip-rule="evenodd" d="M312.716 44.3381H299.659V41.1869L303.898 36.9477V30.9954L305.483 30.1287V23.865H306.891V30.1288L308.477 30.9954V36.9477L312.716 41.1869V44.3381ZM300.851 72.3551H298.814V44.7329H313.782V72.3551H311.248V49.6431H308.872V47.1564H303.504V49.6431H300.851V72.3551ZM305.089 72.3551H303.057V51.9454H305.483V49.2067H306.891V51.9454H309.387V72.3551H307.286V53.076H305.089V72.3551ZM307.286 31.305H305.089V33.1558H307.286V31.305ZM307.286 34.4597H305.089V36.3798H307.286V34.4597ZM308.117 38.0304H304.501L302.154 40.7826H310.424L308.117 38.0304ZM303.057 41.9825H300.851V43.7986H303.057V41.9825ZM308.222 41.9825H304.395V43.7986H308.222V41.9825ZM311.248 41.9825H309.387V43.7986H311.248V41.9825Z" fill="#FCCB36"/>
</g>
<path d="M18.1435 124.423V140.345H36.8626V145.366H18.1435V164.944H11.9779V119.401H40.0408V124.423H18.1435Z" fill="#172736"/>
<path d="M52.1767 164.944H46.0112V119.401H52.1767V164.944Z" fill="#172736"/>
<path d="M87.7573 159.763V164.944H61.9192V119.401H68.0529V159.763H87.7573Z" fill="#172736"/>
<path d="M139.433 119.02V165.325H128.627V145.748H109.813V165.325H99.0073V119.02H109.813V138.375H128.627V119.02H139.433Z" fill="#172736"/>
<path d="M191.958 142.156C191.958 145.504 191.375 148.619 190.21 151.5C189.065 154.382 187.445 156.892 185.347 159.032C183.249 161.151 180.718 162.814 177.751 164.022C174.806 165.23 171.533 165.834 167.931 165.834C164.329 165.834 161.045 165.23 158.079 164.022C155.112 162.814 152.57 161.151 150.451 159.032C148.354 156.892 146.722 154.382 145.557 151.5C144.413 148.619 143.841 145.504 143.841 142.156C143.841 138.809 144.413 135.694 145.557 132.813C146.722 129.931 148.354 127.431 150.451 125.312C152.57 123.194 155.112 121.53 158.079 120.323C161.045 119.115 164.329 118.511 167.931 118.511C171.533 118.511 174.806 119.126 177.751 120.355C180.718 121.562 183.249 123.225 185.347 125.344C187.445 127.463 189.065 129.963 190.21 132.845C191.375 135.726 191.958 138.83 191.958 142.156ZM180.961 142.156C180.961 139.868 180.665 137.813 180.071 135.991C179.478 134.148 178.62 132.59 177.497 131.319C176.395 130.048 175.039 129.073 173.429 128.395C171.819 127.717 169.986 127.378 167.931 127.378C165.855 127.378 164.001 127.717 162.369 128.395C160.759 129.073 159.392 130.048 158.269 131.319C157.168 132.59 156.32 134.148 155.727 135.991C155.134 137.813 154.837 139.868 154.837 142.156C154.837 144.466 155.134 146.542 155.727 148.386C156.32 150.208 157.168 151.754 158.269 153.026C159.392 154.297 160.759 155.272 162.369 155.95C164.001 156.606 165.855 156.935 167.931 156.935C169.986 156.935 171.819 156.606 173.429 155.95C175.039 155.272 176.395 154.297 177.497 153.026C178.62 151.754 179.478 150.208 180.071 148.386C180.665 146.542 180.961 144.466 180.961 142.156Z" fill="#172736"/>
<path d="M236.798 119.02V165.325H231.204C230.378 165.325 229.679 165.198 229.107 164.944C228.556 164.668 228.005 164.202 227.454 163.545L205.621 135.927C205.705 136.754 205.758 137.559 205.779 138.343C205.822 139.105 205.843 139.826 205.843 140.504V165.325H196.372V119.02H202.029C202.495 119.02 202.887 119.041 203.205 119.083C203.523 119.126 203.809 119.21 204.063 119.338C204.317 119.443 204.561 119.602 204.794 119.814C205.027 120.026 205.292 120.312 205.589 120.672L227.613 148.481C227.507 147.591 227.433 146.733 227.391 145.907C227.348 145.059 227.327 144.265 227.327 143.523V119.02H236.798Z" fill="#172736"/>
<path d="M266.122 141.33H282.585V160.876C280.212 162.613 277.68 163.874 274.989 164.658C272.319 165.442 269.523 165.834 266.599 165.834C262.785 165.834 259.31 165.24 256.175 164.054C253.06 162.846 250.39 161.193 248.166 159.096C245.941 156.977 244.225 154.477 243.017 151.596C241.809 148.693 241.206 145.546 241.206 142.156C241.206 138.703 241.778 135.535 242.922 132.654C244.066 129.751 245.697 127.251 247.816 125.154C249.956 123.056 252.53 121.425 255.539 120.259C258.569 119.094 261.948 118.511 265.677 118.511C267.605 118.511 269.417 118.67 271.112 118.988C272.807 119.306 274.364 119.74 275.784 120.291C277.224 120.842 278.538 121.499 279.724 122.261C280.911 123.024 281.97 123.85 282.903 124.74L279.788 129.476C279.301 130.217 278.665 130.673 277.881 130.842C277.118 131.012 276.292 130.821 275.402 130.27C274.555 129.762 273.75 129.327 272.987 128.967C272.245 128.586 271.483 128.279 270.699 128.046C269.915 127.813 269.088 127.643 268.22 127.537C267.351 127.431 266.376 127.378 265.296 127.378C263.283 127.378 261.471 127.738 259.861 128.459C258.251 129.158 256.874 130.154 255.73 131.446C254.607 132.739 253.738 134.296 253.124 136.118C252.509 137.919 252.202 139.932 252.202 142.156C252.202 144.614 252.541 146.797 253.219 148.703C253.897 150.61 254.85 152.221 256.079 153.534C257.329 154.848 258.812 155.854 260.529 156.553C262.266 157.231 264.183 157.57 266.281 157.57C267.573 157.57 268.739 157.443 269.777 157.189C270.836 156.935 271.864 156.596 272.86 156.172V149.148H268.283C267.605 149.148 267.076 148.968 266.694 148.608C266.313 148.248 266.122 147.792 266.122 147.241V141.33Z" fill="#172736"/>
<path d="M311.449 137.771H313.165C314.754 137.771 315.898 137.273 316.597 136.277L327.021 121.149C327.636 120.344 328.293 119.793 328.992 119.496C329.712 119.179 330.602 119.02 331.661 119.02H341.005L327.276 137.739C326.301 139.031 325.252 139.964 324.129 140.536C324.934 140.832 325.665 141.245 326.322 141.775C326.979 142.305 327.593 142.993 328.166 143.841L342.149 165.325H332.551C331.937 165.325 331.407 165.283 330.962 165.198C330.539 165.113 330.168 164.986 329.85 164.817C329.532 164.647 329.257 164.446 329.024 164.213C328.791 163.958 328.568 163.672 328.356 163.355L317.868 147.241C317.487 146.648 317 146.235 316.406 146.002C315.834 145.748 315.05 145.621 314.055 145.621H311.449V165.325H300.707V119.02H311.449V137.771Z" fill="#172736"/>
<path d="M387.077 142.156C387.077 145.504 386.494 148.619 385.329 151.5C384.185 154.382 382.564 156.892 380.467 159.032C378.369 161.151 375.837 162.814 372.871 164.022C369.926 165.23 366.652 165.834 363.05 165.834C359.449 165.834 356.165 165.23 353.198 164.022C350.232 162.814 347.69 161.151 345.571 159.032C343.473 156.892 341.842 154.382 340.676 151.5C339.532 148.619 338.96 145.504 338.96 142.156C338.96 138.809 339.532 135.694 340.676 132.813C341.842 129.931 343.473 127.431 345.571 125.312C347.69 123.194 350.232 121.53 353.198 120.323C356.165 119.115 359.449 118.511 363.05 118.511C366.652 118.511 369.926 119.126 372.871 120.355C375.837 121.562 378.369 123.225 380.467 125.344C382.564 127.463 384.185 129.963 385.329 132.845C386.494 135.726 387.077 138.83 387.077 142.156ZM376.081 142.156C376.081 139.868 375.784 137.813 375.191 135.991C374.598 134.148 373.74 132.59 372.617 131.319C371.515 130.048 370.159 129.073 368.549 128.395C366.938 127.717 365.106 127.378 363.05 127.378C360.974 127.378 359.12 127.717 357.489 128.395C355.878 129.073 354.512 130.048 353.389 131.319C352.287 132.59 351.44 134.148 350.846 135.991C350.253 137.813 349.957 139.868 349.957 142.156C349.957 144.466 350.253 146.542 350.846 148.386C351.44 150.208 352.287 151.754 353.389 153.026C354.512 154.297 355.878 155.272 357.489 155.95C359.12 156.606 360.974 156.935 363.05 156.935C365.106 156.935 366.938 156.606 368.549 155.95C370.159 155.272 371.515 154.297 372.617 153.026C373.74 151.754 374.598 150.208 375.191 148.386C375.784 146.542 376.081 144.466 376.081 142.156Z" fill="#172736"/>
<path d="M431.917 119.02V165.325H426.324C425.498 165.325 424.798 165.198 424.226 164.944C423.676 164.668 423.125 164.202 422.574 163.545L400.74 135.927C400.825 136.754 400.878 137.559 400.899 138.343C400.941 139.105 400.963 139.826 400.963 140.504V165.325H391.492V119.02H397.149C397.615 119.02 398.007 119.041 398.325 119.083C398.642 119.126 398.929 119.21 399.183 119.338C399.437 119.443 399.681 119.602 399.914 119.814C400.147 120.026 400.412 120.312 400.708 120.672L422.733 148.481C422.627 147.591 422.553 146.733 422.51 145.907C422.468 145.059 422.447 144.265 422.447 143.523V119.02H431.917Z" fill="#172736"/>
<path d="M461.242 141.33H477.704V160.876C475.331 162.613 472.799 163.874 470.109 164.658C467.439 165.442 464.642 165.834 461.718 165.834C457.905 165.834 454.43 165.24 451.294 164.054C448.18 162.846 445.51 161.193 443.285 159.096C441.061 156.977 439.344 154.477 438.137 151.596C436.929 148.693 436.325 145.546 436.325 142.156C436.325 138.703 436.897 135.535 438.041 132.654C439.185 129.751 440.817 127.251 442.936 125.154C445.076 123.056 447.65 121.425 450.658 120.259C453.688 119.094 457.068 118.511 460.797 118.511C462.725 118.511 464.536 118.67 466.231 118.988C467.926 119.306 469.484 119.74 470.903 120.291C472.344 120.842 473.657 121.499 474.844 122.261C476.03 123.024 477.09 123.85 478.022 124.74L474.908 129.476C474.42 130.217 473.785 130.673 473.001 130.842C472.238 131.012 471.412 130.821 470.522 130.27C469.674 129.762 468.869 129.327 468.106 128.967C467.365 128.586 466.602 128.279 465.818 128.046C465.034 127.813 464.208 127.643 463.339 127.537C462.47 127.431 461.496 127.378 460.415 127.378C458.402 127.378 456.591 127.738 454.981 128.459C453.37 129.158 451.993 130.154 450.849 131.446C449.726 132.739 448.858 134.296 448.243 136.118C447.629 137.919 447.321 139.932 447.321 142.156C447.321 144.614 447.66 146.797 448.338 148.703C449.016 150.61 449.97 152.221 451.199 153.534C452.449 154.848 453.932 155.854 455.648 156.553C457.385 157.231 459.303 157.57 461.401 157.57C462.693 157.57 463.858 157.443 464.896 157.189C465.956 156.935 466.983 156.596 467.979 156.172V149.148H463.403C462.725 149.148 462.195 148.968 461.814 148.608C461.432 148.248 461.242 147.792 461.242 147.241V141.33Z" fill="#172736"/>
</g>
<defs>
<clipPath id="clip0_2345_1121">
<rect width="488.544" height="177.084" fill="white" transform="translate(0.727905)"/>
</clipPath>
</defs>
</svg>
