<svg width="112" height="46" viewBox="0 0 112 46" fill="none" xmlns="http://www.w3.org/2000/svg">
<g clip-path="url(#clip0_2682_1723)">
<path fill-rule="evenodd" clip-rule="evenodd" d="M41.6843 40.3848C45.7087 43.6912 50.7555 45.4991 55.9639 45.5C61.9062 45.4945 67.6064 43.1448 71.8263 38.9611C75.5211 35.2901 77.8279 30.4509 78.3531 25.2691C78.8784 20.0872 77.5896 14.8836 74.7066 10.5458C71.8237 6.20802 67.5251 3.0048 62.5441 1.48249C57.5631 -0.0398104 52.2082 0.213105 47.3928 2.1981C42.5775 4.18309 38.6 7.77721 36.1387 12.3674C33.6774 16.9576 32.8848 22.2595 33.8961 27.3688C34.9074 32.4781 37.66 37.0783 41.6843 40.3848ZM63.8913 21.2302L58.0257 20.4054C57.779 21.5933 57.5499 22.6755 57.2855 23.9163L63.5776 24.8433C63.5583 24.9117 63.5392 24.9795 63.5201 25.047C63.3791 25.5469 63.2437 26.0268 63.0947 26.5424L56.9577 25.6506C56.8438 26.0841 56.7364 26.5152 56.6296 26.9437C56.3727 27.9747 56.1196 28.9902 55.7909 29.9863C55.3133 31.5538 54.7243 33.0852 54.0284 34.5688C53.6204 35.482 52.9988 36.2838 52.216 36.9064C51.4332 37.5291 50.5121 37.9545 49.5305 38.1466C48.9293 38.3016 48.3011 38.321 47.6914 38.2034C47.0818 38.0857 46.5059 37.8339 46.0055 37.4663C45.6576 37.2296 45.413 36.869 45.3217 36.4582C45.3195 36.2365 45.3628 36.0166 45.4488 35.8123C45.5349 35.608 45.662 35.4235 45.8222 35.2702C46.0267 35.1081 46.6471 35.2279 46.9256 35.4324C47.2835 35.7744 47.5888 36.1676 47.8315 36.5992C48.0109 36.909 48.2934 37.146 48.6296 37.269C48.9658 37.392 49.3345 37.3932 49.6715 37.2724C49.895 37.1938 50.0968 37.0633 50.2602 36.8917C51.2346 36.0032 51.9044 34.8303 52.1743 33.5395C52.6877 31.6361 53.1325 29.6908 53.5759 27.7512C53.7353 27.0542 53.8945 26.3579 54.0566 25.6647C54.0707 25.5099 54.0707 25.3541 54.0566 25.1994L48.2016 24.3146C48.2682 23.8272 48.3218 23.4022 48.387 22.8855C48.3977 22.8006 48.4087 22.7132 48.4202 22.6226L54.4408 23.4615C54.7158 22.323 54.9802 21.2055 55.2586 20.0106L48.9595 19.0412C48.9965 18.7486 49.0344 18.4658 49.0723 18.1829C49.1102 17.9 49.1481 17.6171 49.1851 17.3245L55.6358 18.2587C55.6535 18.1916 55.671 18.1252 55.6883 18.0593C55.837 17.4948 55.975 16.9704 56.1328 16.4433C56.166 16.333 56.199 16.2226 56.232 16.1123C56.7958 14.2272 57.3582 12.3467 58.5404 10.7117C59.7918 8.98089 61.4168 7.8247 63.6692 7.9234C64.1567 7.92295 64.6391 8.0225 65.0866 8.21592C65.534 8.40933 65.937 8.69248 66.2707 9.04787C66.4258 9.21002 66.6232 9.42152 66.6232 9.59777C66.6209 9.64489 66.619 9.69361 66.617 9.74335C66.6005 10.1624 66.581 10.654 66.3447 10.8809C66.1289 11.0343 65.8626 11.0993 65.6004 11.0626C65.3383 11.0259 65.1001 10.8902 64.9347 10.6835C64.631 10.3526 64.3529 9.99906 64.1028 9.62597C63.986 9.42175 63.8215 9.24882 63.6234 9.12189C63.4254 8.99296 63.1994 8.9132 62.9643 8.88924C62.7295 8.86382 62.4921 8.89504 62.2719 8.98029C62.0517 9.06554 61.8552 9.20234 61.6988 9.37922C61.1001 9.96656 60.6348 10.6759 60.3346 11.459C59.7604 13.2722 59.2526 15.1261 58.7327 17.0241C58.5856 17.5613 58.4375 18.1021 58.2866 18.6464L64.3601 19.5488C64.3298 19.657 64.3 19.7629 64.2707 19.8675C64.1433 20.3212 64.0231 20.7489 63.8913 21.2302Z" fill="white"/>
<mask id="mask0_2682_1723" style="mask-type:alpha" maskUnits="userSpaceOnUse" x="0" y="3" width="35" height="40">
<path fill-rule="evenodd" clip-rule="evenodd" d="M33.0475 32.4046C31.605 28.9243 30.9779 25.1601 31.2144 21.4001C31.4508 17.6401 32.5445 13.984 34.4117 10.7119C31.9378 7.67849 28.6036 5.465 24.8477 4.36257C21.0919 3.26014 17.0903 3.32041 13.3694 4.53545C9.64841 5.7505 6.3824 8.0634 4.00095 11.1699C1.6195 14.2764 0.234148 18.031 0.0271387 21.9399C-0.179871 25.8487 0.801155 29.7286 2.84117 33.0693C4.88118 36.41 7.88463 39.0549 11.4564 40.6562C15.0282 42.2574 19.0011 42.74 22.8523 42.0405C26.7036 41.3409 30.2529 39.492 33.0334 36.7368C33.5228 36.2489 33.9853 35.7347 34.4188 35.1964C33.9041 34.2952 33.4462 33.3628 33.0475 32.4046V32.4046Z" fill="white"/>
</mask>
<g mask="url(#mask0_2682_1723)">
<path fill-rule="evenodd" clip-rule="evenodd" d="M38.8311 22.937C38.8311 33.6599 30.1385 42.3526 19.4155 42.3526C8.69264 42.3526 0 33.6599 0 22.937C0 12.2141 8.69264 3.52148 19.4155 3.52148C30.1385 3.52148 38.8311 12.2141 38.8311 22.937ZM22.9559 16.9567L23.1692 18.0385L15.0378 15.6777C15.5095 15.3195 15.8467 14.9804 16.0906 14.5983C16.365 14.1684 16.5131 13.697 16.6146 13.1098L22.9559 16.9567ZM11.7338 20.6535L6.83094 19.3342C7.0226 19.145 7.17717 18.9632 7.30609 18.7637C7.47054 18.5091 7.58844 18.233 7.69245 17.888L10.5632 19.273L10.863 19.4229L10.8671 19.4248L11.0999 19.5342L11.4549 19.8532L11.7338 20.6535ZM11.8389 21.8111V21.0657L6.66194 19.6726C6.67367 19.9416 6.66491 20.1745 6.62731 20.4039C6.58922 20.6362 6.52248 20.8593 6.42334 21.1081L11.8389 21.8111ZM6.38611 22.911C6.4369 22.6491 6.46286 22.4193 6.46256 22.1853C6.46227 21.9594 6.4375 21.7343 6.39053 21.4777L11.8389 22.1849V22.9527L6.38611 22.911ZM10.9254 24.1959L10.9199 24.1966L10.6653 24.2327L6.71559 24.7419C6.71765 24.4151 6.69794 24.1458 6.64279 23.8859C6.59968 23.6827 6.53581 23.4894 6.44772 23.2822L11.8389 23.3234V24.0734L11.1815 24.1734L10.9297 24.1955L10.9254 24.1959ZM10.8303 18.992L11.1572 19.0859V17.9082C11.1345 17.9014 10.9629 17.8961 10.9242 17.8961C10.8856 17.8961 10.853 17.9014 10.8303 17.9082V18.992ZM11.1572 24.5599V26.9636H10.8766V24.5772L10.967 24.5644L11.1572 24.5599ZM18.5054 30.0745V27.3343H10.7147V28.2351L11.7578 29.6351C11.7898 29.6694 11.8547 29.7145 11.9692 29.7629C12.0857 29.812 12.2391 29.8587 12.4295 29.9012C12.8101 29.9863 13.3202 30.0513 13.9384 30.0936C15.1347 30.1756 16.7165 30.1718 18.5054 30.0745ZM8.04347 27.9535L10.4224 28.4632L11.4656 29.8634L11.4746 29.8746C11.559 29.9711 11.6842 30.045 11.825 30.1044C11.9689 30.1652 12.1455 30.2176 12.3486 30.263C12.755 30.3539 13.2858 30.4205 13.913 30.4635C15.1687 30.5495 16.8313 30.5421 18.7014 30.4348C19.4899 30.3896 20.3159 30.3266 21.1645 30.2452C21.5211 30.211 21.8817 30.1736 22.2452 30.1328C24.384 29.8933 26.6246 29.54 28.7425 29.0641C28.9114 29.0262 29.0797 28.9874 29.247 28.9479C30.2551 28.7097 31.2316 28.4428 32.1511 28.1462C30.1873 29.7682 29.004 30.9004 27.5111 32.8219H13.1274C11.9575 32.8219 10.8674 32.0401 9.95638 30.9919C9.10594 30.0133 8.43987 28.8345 8.04347 27.9535ZM21.3321 29.8564C21.5663 29.8332 21.8021 29.8086 22.0392 29.7827V25.3072L21.3321 25.4158V29.8564ZM29.019 26.0503V28.6206C28.9969 28.6257 28.9398 28.6308 28.8828 28.6359C28.8264 28.641 28.7701 28.646 28.7482 28.6511V26.0673L29.019 26.0503ZM29.177 25.6561L29.6208 25.5807V24.8177H24.5083C24.6126 25.0489 24.6912 25.2568 24.7385 25.4625C24.7963 25.7131 24.8065 25.9549 24.7686 26.2277L28.678 25.7204L29.177 25.6561ZM24.4718 24.4469C24.5526 24.1738 24.5916 23.9326 24.5888 23.6874C24.5862 23.4538 24.5457 23.224 24.4758 22.9679L29.6208 23.6458V24.4469H24.4718ZM29.6208 23.2719V22.4745L24.9004 21.1432C24.9195 21.4216 24.9008 21.6632 24.8368 21.901C24.7738 22.1349 24.669 22.3572 24.5252 22.6005L29.6208 23.2719ZM29.5266 22.0627L25.0609 20.8033C25.2795 20.5956 25.4451 20.4042 25.5748 20.2044C25.7315 19.9633 25.8309 19.7175 25.912 19.4301L28.6091 20.9196L29.095 21.2133L29.321 21.4088L29.5266 22.0627ZM28.7482 20.5618L29.019 20.7342V19.5212C29.0005 19.5162 28.9761 19.5122 28.9482 19.5114C28.9356 19.5111 28.8881 19.4874 28.8424 19.4647C28.7983 19.4428 28.7559 19.4217 28.7482 19.4231V20.5618ZM23.2247 18.4406L14.8365 16.0052C14.871 16.4309 14.8422 16.7861 14.7425 17.1317C14.6441 17.4731 14.4789 17.7964 14.2529 18.1612L23.2247 19.5314V18.4406ZM14.1618 18.5223L23.2247 19.9064V21.4354L13.8286 20.7577C13.9971 20.3615 14.1084 20.0182 14.163 19.6648C14.2182 19.3077 14.2145 18.9484 14.1618 18.5223ZM23.2247 21.8071L13.8311 21.1296C13.9708 21.5225 14.0343 21.863 14.0276 22.2086C14.0209 22.5562 13.9431 22.8985 13.8151 23.2916L23.2247 22.9605V21.8071ZM14.2327 24.5948C14.1729 24.2749 14.0499 23.9794 13.8715 23.6606L23.1917 23.3326L22.9601 24.7906L21.1222 25.073L14.1816 25.8651C14.283 25.3711 14.3033 24.9731 14.2327 24.5948ZM22.0392 13.6854C22.0392 13.6854 22.0393 13.6539 21.971 13.6186C21.9028 13.5833 21.7987 13.5597 21.6842 13.5588C21.5694 13.5578 21.4665 13.5797 21.3996 13.614C21.3346 13.6473 21.3321 13.6738 21.3321 13.6855V15.538L22.0392 15.967V13.6854Z" fill="white"/>
</g>
<mask id="mask1_2682_1723" style="mask-type:alpha" maskUnits="userSpaceOnUse" x="77" y="3" width="35" height="40">
<path fill-rule="evenodd" clip-rule="evenodd" d="M108.715 12.2733C107.133 9.86813 105.037 7.84453 102.578 6.34891C100.118 4.8533 97.3569 3.92307 94.4938 3.62553C91.6307 3.32798 88.7372 3.67056 86.0227 4.62847C83.3083 5.58638 80.8406 7.13568 78.7984 9.16428C78.3077 9.65307 77.8429 10.1672 77.406 10.7047C79.5274 14.4367 80.6427 18.6559 80.6427 22.9487C80.6427 27.2416 79.5274 31.4607 77.406 35.1928C80.5563 39.0307 85.0568 41.5163 89.9828 42.1391C94.9088 42.7618 99.8863 41.4743 103.893 38.5412C107.899 35.608 110.63 31.2519 111.524 26.3678C112.418 21.4838 111.408 16.4427 108.701 12.2804L108.715 12.2733Z" fill="white"/>
</mask>
<g mask="url(#mask1_2682_1723)">
<path fill-rule="evenodd" clip-rule="evenodd" d="M111.842 22.907C111.842 33.6133 103.162 42.2925 92.4561 42.2925C81.7498 42.2925 73.0706 33.6133 73.0706 22.907C73.0706 12.2007 81.7498 3.52148 92.4561 3.52148C103.162 3.52148 111.842 12.2007 111.842 22.907ZM98.5559 14.0252V11.8268C98.4462 12.1979 98.3449 12.8593 98.3449 14.0252V34.2784H102.534V14.0252C102.534 12.7321 102.396 12.062 102.262 11.7203V14.0252H101.892V11.4021H101.428V14.0252H101.058V11.4021H100.594V14.0252H100.224V11.4021H99.7599V14.0252H99.3898V11.4021H98.926V14.0252H98.5559ZM98.6484 15.0442H102.183V14.6741H98.6484V15.0442ZM98.6484 15.8557H102.183V15.4856H98.6484V15.8557ZM98.6484 16.6655H102.183V16.2954H98.6484V16.6655ZM98.6484 17.4569H102.183V17.0868H98.6484V17.4569ZM98.6484 18.2684H102.183V17.8983H98.6484V18.2684ZM98.6484 19.0799H102.183V18.7098H98.6484V19.0799ZM98.6484 19.8914H102.183V19.5213H98.6484V19.8914ZM98.6484 20.7029H102.183V20.3328H98.6484V20.7029ZM98.6484 21.5144H102.183V21.1443H98.6484V21.5144ZM98.6484 22.3259H102.183V21.9558H98.6484V22.3259ZM98.6484 23.1374H102.183V22.7673H98.6484V23.1374ZM98.6484 23.9489H102.183V23.5788H98.6484V23.9489ZM98.6484 24.7604H102.183V24.3903H98.6484V24.7604ZM98.6484 25.5719H102.183V25.2018H98.6484V25.5719ZM98.6484 26.3834H102.183V26.0133H98.6484V26.3834ZM98.6484 27.1949H102.183V26.8248H98.6484V27.1949ZM98.6484 28.0064H102.183V27.6363H98.6484V28.0064ZM98.6484 28.8179H102.183V28.4478H98.6484V28.8179ZM98.6484 29.6294H102.183V29.2593H98.6484V29.6294ZM98.6484 30.4409H102.183V30.0709H98.6484V30.4409ZM98.6484 31.2524H102.183V30.8824H98.6484V31.2524ZM98.6484 32.0639H102.183V31.6939H98.6484V32.0639ZM98.6484 32.8754H102.183V32.5054H98.6484V32.8754ZM98.6484 33.6869H102.183V33.3169H98.6484V33.6869ZM97.6881 14.2103H97.9749V34.2784H96.8951V18.3155H97.4299L97.6881 14.2103ZM102.904 14.2103V34.2784H103.769V18.3155H103.242L103.121 14.2103H102.904ZM91.2519 17.1589L90.703 17.7078V13.306H91.2519V14.4913H93.8895V13.306H94.3698V17.727L93.8895 17.2467V14.9459H91.2519V17.1589ZM92.3418 16.5924L90.0391 18.895L92.3418 21.1977V16.5924ZM95.0145 18.895L92.7118 21.1977V16.5924L95.0145 18.895ZM95.0911 19.3417L92.7885 21.6444L95.0911 23.947V19.3417ZM92.7118 22.091L95.0145 24.3937L92.7118 26.6964V22.091ZM92.3418 22.091L90.0391 24.3937L92.3418 26.6964V22.091ZM92.2651 21.6444L89.9625 23.947V19.3417L92.2651 21.6444ZM89.9625 24.8404L92.2651 27.1431L89.9625 29.4457V24.8404ZM89.9625 34.325V30.3391L92.3418 32.7184V34.325H89.9625ZM92.7118 32.7184L95.0911 30.3391V34.325H92.7118V32.7184ZM95.0911 24.8404V29.4457L92.7885 27.1431L95.0911 24.8404ZM92.7118 27.5897V32.1951L95.0145 29.8924L92.7118 27.5897ZM90.0391 29.8924L92.3418 32.1951V27.5897L90.0391 29.8924ZM81.5392 21.2804H87.659V19.8035L85.6721 17.8166V15.0268L84.9288 14.6206V11.6848H84.2689V14.6205L83.5261 15.0267V17.8166L81.5392 19.8035V21.2804ZM84.0839 15.1719H85.1138V16.0393H84.0839V15.1719ZM84.0839 16.6504H85.1138V17.5504H84.0839V16.6504ZM83.8088 18.324H85.5032L86.5844 19.6139H82.7086L83.8088 18.324ZM82.0979 20.1763H83.1316V21.0275H82.0979V20.1763ZM83.7589 20.1763H85.5525V21.0275H83.7589V20.1763ZM86.0987 20.1763H86.9708V21.0275H86.0987V20.1763ZM82.0979 34.4118H81.1433V21.4654H88.1585V34.4118H86.9708V23.7668H85.8571V22.6013H83.3411V23.7668H82.0979V34.4118ZM83.1316 34.4118H84.0839V25.3758H85.1138V34.4118H86.0987V24.8459H84.9288V23.5623H84.2689V24.8459H83.1316V34.4118Z" fill="white"/>
</g>
</g>
<defs>
<clipPath id="clip0_2682_1723">
<rect width="111.842" height="45" fill="white" transform="translate(0 0.5)"/>
</clipPath>
</defs>
</svg>
