<svg width="179" height="24" viewBox="0 0 179 24" fill="none" xmlns="http://www.w3.org/2000/svg">
<g clip-path="url(#clip0_2674_2072)">
<path d="M19.3975 1.14849V22.8515H14.333V13.6758H5.51473V22.8515H0.450195V1.14849H5.51473V10.22H14.333V1.14849H19.3975Z" fill="white"/>
<path d="M44.0155 11.9926C44.0155 13.5616 43.7424 15.0213 43.1962 16.3719C42.66 17.7224 41.9003 18.8992 40.9172 19.9022C39.934 20.8952 38.7473 21.6748 37.3571 22.2408C35.9767 22.8068 34.4425 23.0899 32.7543 23.0899C31.0661 23.0899 29.5269 22.8068 28.1366 22.2408C26.7464 21.6748 25.5547 20.8952 24.5617 19.9022C23.5786 18.8992 22.8139 17.7224 22.2677 16.3719C21.7315 15.0213 21.4634 13.5616 21.4634 11.9926C21.4634 10.4235 21.7315 8.96377 22.2677 7.61322C22.8139 6.26268 23.5786 5.09088 24.5617 4.09784C25.5547 3.10479 26.7464 2.32525 28.1366 1.75921C29.5269 1.19317 31.0661 0.910156 32.7543 0.910156C34.4425 0.910156 35.9767 1.19814 37.3571 1.77411C38.7473 2.34014 39.934 3.11969 40.9172 4.11273C41.9003 5.10578 42.66 6.27757 43.1962 7.62812C43.7424 8.97866 44.0155 10.4335 44.0155 11.9926ZM38.8615 11.9926C38.8615 10.9201 38.7225 9.95681 38.4445 9.10279C38.1664 8.23884 37.7642 7.50895 37.2379 6.91312C36.7215 6.3173 36.086 5.86049 35.3313 5.54272C34.5766 5.22494 33.7176 5.06606 32.7543 5.06606C31.7811 5.06606 30.9122 5.22494 30.1476 5.54272C29.3929 5.86049 28.7523 6.3173 28.226 6.91312C27.7096 7.50895 27.3124 8.23884 27.0344 9.10279C26.7563 9.95681 26.6173 10.9201 26.6173 11.9926C26.6173 13.075 26.7563 14.0482 27.0344 14.9121C27.3124 15.7661 27.7096 16.4911 28.226 17.0869C28.7523 17.6827 29.3929 18.1395 30.1476 18.4573C30.9122 18.7651 31.7811 18.9191 32.7543 18.9191C33.7176 18.9191 34.5766 18.7651 35.3313 18.4573C36.086 18.1395 36.7215 17.6827 37.2379 17.0869C37.7642 16.4911 38.1664 15.7661 38.4445 14.9121C38.7225 14.0482 38.8615 13.075 38.8615 11.9926Z" fill="white"/>
<path d="M65.0319 1.14849V22.8515H62.4103C62.023 22.8515 61.6953 22.7919 61.4271 22.6728C61.1689 22.5437 60.9108 22.3252 60.6526 22.0174L50.4192 9.073C50.4589 9.46029 50.4838 9.83764 50.4937 10.2051C50.5136 10.5626 50.5235 10.9002 50.5235 11.218V22.8515H46.0846V1.14849H48.736C48.9545 1.14849 49.1382 1.15842 49.2871 1.17828C49.4361 1.19814 49.5702 1.23786 49.6893 1.29744C49.8085 1.3471 49.9227 1.42158 50.0319 1.52088C50.1412 1.62018 50.2653 1.75425 50.4043 1.92306L60.727 14.9568C60.6774 14.5397 60.6426 14.1375 60.6228 13.7503C60.6029 13.353 60.593 12.9806 60.593 12.6331V1.14849H65.0319Z" fill="white"/>
<path d="M78.776 11.6053H86.4919V20.7661C85.3797 21.5804 84.193 22.1713 82.9319 22.5387C81.6806 22.9061 80.3698 23.0899 78.9994 23.0899C77.2119 23.0899 75.5833 22.8118 74.1136 22.2557C72.6538 21.6897 71.4026 20.9151 70.3599 19.932C69.3172 18.9389 68.5128 17.7671 67.9468 16.4166C67.3808 15.0561 67.0977 13.5814 67.0977 11.9926C67.0977 10.3739 67.3659 8.88929 67.9021 7.53874C68.4384 6.17827 69.203 5.00647 70.1961 4.02336C71.199 3.04024 72.4056 2.2756 73.8157 1.72942C75.2358 1.18324 76.8197 0.910156 78.5674 0.910156C79.4711 0.910156 80.3202 0.984635 81.1146 1.13359C81.909 1.28255 82.6389 1.48612 83.3043 1.74432C83.9795 2.00251 84.5952 2.31035 85.1513 2.66785C85.7074 3.02535 86.204 3.41263 86.6409 3.82971L85.1811 6.04917C84.9527 6.39674 84.6548 6.61024 84.2874 6.68969C83.9299 6.76913 83.5426 6.67976 83.1255 6.42156C82.7283 6.18323 82.3509 5.97966 81.9934 5.81084C81.6459 5.63209 81.2884 5.4881 80.921 5.37887C80.5535 5.26963 80.1662 5.19019 79.7591 5.14054C79.3519 5.09088 78.8951 5.06606 78.3887 5.06606C77.4453 5.06606 76.5962 5.23487 75.8415 5.57251C75.0868 5.90021 74.4413 6.36695 73.9051 6.9727C73.3788 7.57846 72.9716 8.30835 72.6836 9.16237C72.3956 10.0065 72.2517 10.9499 72.2517 11.9926C72.2517 13.1445 72.4105 14.1673 72.7283 15.0611C73.0461 15.9548 73.493 16.7095 74.0689 17.3252C74.6548 17.9409 75.35 18.4126 76.1543 18.7403C76.9686 19.0581 77.8673 19.217 78.8505 19.217C79.4562 19.217 80.0024 19.1574 80.489 19.0382C80.9855 18.9191 81.4671 18.7602 81.9339 18.5616V15.2696H79.7889C79.4711 15.2696 79.2228 15.1852 79.0441 15.0164C78.8653 14.8476 78.776 14.6341 78.776 14.3759V11.6053Z" fill="white"/>
<path d="M100.02 9.93695H100.825C101.569 9.93695 102.106 9.70358 102.433 9.23685L107.319 2.1465C107.607 1.76914 107.915 1.51095 108.243 1.37192C108.58 1.22297 108.997 1.14849 109.494 1.14849H113.873L107.438 9.92206C106.982 10.5278 106.49 10.9648 105.964 11.2329C106.341 11.3719 106.684 11.5655 106.991 11.8138C107.299 12.0621 107.587 12.3848 107.855 12.782L114.41 22.8515H109.911C109.623 22.8515 109.375 22.8317 109.166 22.7919C108.968 22.7522 108.794 22.6926 108.645 22.6132C108.496 22.5337 108.367 22.4394 108.258 22.3302C108.148 22.211 108.044 22.0769 107.945 21.928L103.029 14.3759C102.85 14.0978 102.622 13.9042 102.344 13.7949C102.076 13.6758 101.708 13.6162 101.242 13.6162H100.02V22.8515H94.9855V1.14849H100.02V9.93695Z" fill="white"/>
<path d="M135.467 11.9926C135.467 13.5616 135.194 15.0213 134.648 16.3719C134.111 17.7224 133.352 18.8992 132.369 19.9022C131.385 20.8952 130.199 21.6748 128.809 22.2408C127.428 22.8068 125.894 23.0899 124.206 23.0899C122.518 23.0899 120.978 22.8068 119.588 22.2408C118.198 21.6748 117.006 20.8952 116.013 19.9022C115.03 18.8992 114.265 17.7224 113.719 16.3719C113.183 15.0213 112.915 13.5616 112.915 11.9926C112.915 10.4235 113.183 8.96377 113.719 7.61322C114.265 6.26268 115.03 5.09088 116.013 4.09784C117.006 3.10479 118.198 2.32525 119.588 1.75921C120.978 1.19317 122.518 0.910156 124.206 0.910156C125.894 0.910156 127.428 1.19814 128.809 1.77411C130.199 2.34014 131.385 3.11969 132.369 4.11273C133.352 5.10578 134.111 6.27757 134.648 7.62812C135.194 8.97866 135.467 10.4335 135.467 11.9926ZM130.313 11.9926C130.313 10.9201 130.174 9.95681 129.896 9.10279C129.618 8.23884 129.216 7.50895 128.689 6.91312C128.173 6.3173 127.537 5.86049 126.783 5.54272C126.028 5.22494 125.169 5.06606 124.206 5.06606C123.233 5.06606 122.364 5.22494 121.599 5.54272C120.844 5.86049 120.204 6.3173 119.677 6.91312C119.161 7.50895 118.764 8.23884 118.486 9.10279C118.208 9.95681 118.069 10.9201 118.069 11.9926C118.069 13.075 118.208 14.0482 118.486 14.9121C118.764 15.7661 119.161 16.4911 119.677 17.0869C120.204 17.6827 120.844 18.1395 121.599 18.4573C122.364 18.7651 123.233 18.9191 124.206 18.9191C125.169 18.9191 126.028 18.7651 126.783 18.4573C127.537 18.1395 128.173 17.6827 128.689 17.0869C129.216 16.4911 129.618 15.7661 129.896 14.9121C130.174 14.0482 130.313 13.075 130.313 11.9926Z" fill="white"/>
<path d="M156.483 1.14849V22.8515H153.862C153.474 22.8515 153.147 22.7919 152.879 22.6728C152.62 22.5437 152.362 22.3252 152.104 22.0174L141.871 9.073C141.91 9.46029 141.935 9.83764 141.945 10.2051C141.965 10.5626 141.975 10.9002 141.975 11.218V22.8515H137.536V1.14849H140.187C140.406 1.14849 140.59 1.15842 140.739 1.17828C140.888 1.19814 141.022 1.23786 141.141 1.29744C141.26 1.3471 141.374 1.42158 141.483 1.52088C141.593 1.62018 141.717 1.75425 141.856 1.92306L152.178 14.9568C152.129 14.5397 152.094 14.1375 152.074 13.7503C152.054 13.353 152.044 12.9806 152.044 12.6331V1.14849H156.483Z" fill="white"/>
<path d="M170.227 11.6053H177.943V20.7661C176.831 21.5804 175.645 22.1713 174.383 22.5387C173.132 22.9061 171.821 23.0899 170.451 23.0899C168.663 23.0899 167.035 22.8118 165.565 22.2557C164.105 21.6897 162.854 20.9151 161.811 19.932C160.769 18.9389 159.964 17.7671 159.398 16.4166C158.832 15.0561 158.549 13.5814 158.549 11.9926C158.549 10.3739 158.817 8.88929 159.354 7.53874C159.89 6.17827 160.654 5.00647 161.647 4.02336C162.65 3.04024 163.857 2.2756 165.267 1.72942C166.687 1.18324 168.271 0.910156 170.019 0.910156C170.923 0.910156 171.772 0.984635 172.566 1.13359C173.36 1.28255 174.09 1.48612 174.756 1.74432C175.431 2.00251 176.047 2.31035 176.603 2.66785C177.159 3.02535 177.655 3.41263 178.092 3.82971L176.633 6.04917C176.404 6.39674 176.106 6.61024 175.739 6.68969C175.381 6.76913 174.994 6.67976 174.577 6.42156C174.18 6.18323 173.802 5.97966 173.445 5.81084C173.097 5.63209 172.74 5.4881 172.372 5.37887C172.005 5.26963 171.618 5.19019 171.211 5.14054C170.803 5.09088 170.347 5.06606 169.84 5.06606C168.897 5.06606 168.048 5.23487 167.293 5.57251C166.538 5.90021 165.893 6.36695 165.357 6.9727C164.83 7.57846 164.423 8.30835 164.135 9.16237C163.847 10.0065 163.703 10.9499 163.703 11.9926C163.703 13.1445 163.862 14.1673 164.18 15.0611C164.498 15.9548 164.944 16.7095 165.52 17.3252C166.106 17.9409 166.801 18.4126 167.606 18.7403C168.42 19.0581 169.319 19.217 170.302 19.217C170.908 19.217 171.454 19.1574 171.94 19.0382C172.437 18.9191 172.919 18.7602 173.385 18.5616V15.2696H171.24C170.923 15.2696 170.674 15.1852 170.496 15.0164C170.317 14.8476 170.227 14.6341 170.227 14.3759V11.6053Z" fill="white"/>
</g>
<defs>
<clipPath id="clip0_2674_2072">
<rect width="177.642" height="22.1797" fill="white" transform="translate(0.450195 0.910156)"/>
</clipPath>
</defs>
</svg>
