<svg width="50" height="50" viewBox="0 0 50 50" fill="none" xmlns="http://www.w3.org/2000/svg">
<path d="M25 49.9999C38.8071 49.9999 50 38.8071 50 25C50 11.1929 38.8071 0 25 0C11.1929 0 3.05176e-05 11.1929 3.05176e-05 25C3.05176e-05 38.8071 11.1929 49.9999 25 49.9999Z" fill="#CC3339"/>
<path fill-rule="evenodd" clip-rule="evenodd" d="M32.8665 13.5456V10.7105C32.725 11.1891 32.5944 12.042 32.5944 13.5456V39.6646H37.997V13.5456C37.997 11.8779 37.8192 11.0137 37.6454 10.5732V13.5456H37.1682V10.1627H36.57V13.5456H36.0928V10.1627H35.4946V13.5456H35.0174V10.1627H34.4191V13.5456H33.9419V10.1627H33.3437V13.5456H32.8665ZM31.7474 13.7842H32.1172V39.6646H30.7246V19.0784H31.4144L31.7474 13.7842ZM38.4742 39.6646V13.7842H38.7532L38.9093 19.0784H39.5892V39.6646H38.4742ZM32.9858 14.8596H37.5441V14.3824H32.9858V14.8596ZM32.9858 15.9062H37.5441V15.429H32.9858V15.9062ZM32.9858 16.9505H37.5441V16.4733H32.9858V16.9505ZM32.9858 17.9711H37.5441V17.4939H32.9858V17.9711ZM32.9858 19.0176H37.5441V18.5404H32.9858V19.0176ZM32.9858 20.0642H37.5441V19.5869H32.9858V20.0642ZM32.9858 21.1107H37.5441V20.6335H32.9858V21.1107ZM32.9858 22.1572H37.5441V21.68H32.9858V22.1572ZM32.9858 23.2038H37.5441V22.7265H32.9858V23.2038ZM32.9858 24.2503H37.5441V23.7731H32.9858V24.2503ZM32.9858 25.2968H37.5441V24.8196H32.9858V25.2968ZM32.9858 26.3433H37.5441V25.8661H32.9858V26.3433ZM32.9858 27.3899H37.5441V26.9127H32.9858V27.3899ZM32.9858 28.4364H37.5441V27.9592H32.9858V28.4364ZM32.9858 29.4829H37.5441V29.0057H32.9858V29.4829ZM32.9858 30.5295H37.5441V30.0523H32.9858V30.5295ZM32.9858 31.576H37.5441V31.0988H32.9858V31.576ZM32.9858 32.6225H37.5441V32.1453H32.9858V32.6225ZM32.9858 33.6691H37.5441V33.1919H32.9858V33.6691ZM32.9858 34.7156H37.5441V34.2384H32.9858V34.7156ZM32.9858 35.7621H37.5441V35.2849H32.9858V35.7621ZM32.9858 36.8087H37.5441V36.3314H32.9858V36.8087ZM32.9858 37.8552H37.5441V37.378H32.9858V37.8552ZM32.9858 38.9017H37.5441V38.4245H32.9858V38.9017Z" fill="white"/>
<path fill-rule="evenodd" clip-rule="evenodd" d="M23.447 17.5871L22.7392 18.2949V12.6182H23.447V14.1469H26.8486V12.6182H27.468V18.3197L26.8486 17.7003V14.7331H23.447V17.5871ZM21.883 19.826L24.8526 16.8564V22.7956L21.883 19.826ZM25.3298 22.7956V16.8564L28.2994 19.826L25.3298 22.7956ZM25.4287 23.3716L28.3982 20.402V26.3412L25.4287 23.3716ZM25.3298 23.9476L28.2994 26.9172L25.3298 29.8868V23.9476ZM24.8526 23.9476V29.8868L21.883 26.9172L24.8526 23.9476ZM24.7538 23.3716L21.7842 26.3412V20.402L24.7538 23.3716ZM24.7538 30.4628L21.7842 27.4933V33.4324L24.7538 30.4628ZM21.7842 39.7248V34.5845L24.8526 37.6529V39.7248H21.7842ZM28.3982 34.5845L25.3298 37.6529V39.7248H28.3982V34.5845ZM28.3982 27.4933V33.4324L25.4287 30.4628L28.3982 27.4933ZM25.3298 36.978V31.0389L28.2994 34.0085L25.3298 36.978ZM24.8526 36.978V31.0389L21.883 34.0085L24.8526 36.978Z" fill="white"/>
<path fill-rule="evenodd" clip-rule="evenodd" d="M18.8136 22.9023H10.9214V20.9976L13.4837 18.4353V14.8374L14.4417 14.3136V10.5275H15.2927V14.3136L16.2513 14.8375V18.4353L18.8136 20.9976V22.9023ZM11.6419 39.8368H10.4108V23.1409H19.4578V39.8368H17.9261V26.1088H16.4899V24.6058H13.2451V26.1088H11.6419V39.8368ZM14.2031 39.8368H12.9749V27.5004H14.4417V25.845H15.2927V27.5004H16.8014V39.8368H15.5313V28.1838H14.2031V39.8368ZM15.5313 15.0246H14.2031V16.1433H15.5313V15.0246ZM15.5313 16.9314H14.2031V18.092H15.5313V16.9314ZM16.0334 19.0897H13.8483L12.4294 20.7532H17.4278L16.0334 19.0897ZM12.9749 21.4785H11.6419V22.5762H12.9749V21.4785ZM16.0971 21.4785H13.784V22.5762H16.0971V21.4785ZM17.9261 21.4785H16.8014V22.5762H17.9261V21.4785Z" fill="white"/>
</svg>
