<svg width="26" height="33" viewBox="0 0 26 33" fill="none" xmlns="http://www.w3.org/2000/svg">
<g clip-path="url(#clip0_2344_1046)">
<path fill-rule="evenodd" clip-rule="evenodd" d="M6.66308 2.5659C8.53726 1.44139 10.6848 0.845459 12.8714 0.845459H13.129C15.3155 0.845459 17.4631 1.44139 19.3373 2.5659C22.9645 4.74226 25.1906 8.66581 25.1906 12.8979C25.1906 15.2759 24.4867 17.6008 23.1676 19.5794L16.6371 29.3752C15.8264 30.5912 14.4616 31.3217 13.0002 31.3217C11.5387 31.3217 10.1739 30.5912 9.36321 29.3752L2.8327 19.5794C1.5136 17.6008 0.809692 15.2759 0.809692 12.8979C0.809692 8.66581 3.03581 4.74226 6.66308 2.5659ZM9.95253 13.0359C9.95253 11.3528 11.317 9.98829 13.0001 9.98829C14.6833 9.98829 16.0478 11.3528 16.0478 13.0359C16.0478 14.7191 14.6833 16.0835 13.0001 16.0835C11.317 16.0835 9.95253 14.7191 9.95253 13.0359ZM13.0001 6.94067C9.63384 6.94067 6.90491 9.66961 6.90491 13.0359C6.90491 16.4022 9.63384 19.1311 13.0001 19.1311C16.3665 19.1311 19.0954 16.4022 19.0954 13.0359C19.0954 9.66961 16.3665 6.94067 13.0001 6.94067Z" fill="#CC3339"/>
</g>
<defs>
<clipPath id="clip0_2344_1046">
<rect width="25.1429" height="32" fill="white" transform="translate(0.428711 0.0834961)"/>
</clipPath>
</defs>
</svg>
