<svg width="180" height="56" viewBox="0 0 180 56" fill="none" xmlns="http://www.w3.org/2000/svg">
<g clip-path="url(#clip0_2345_1126)">
<g clip-path="url(#clip1_2345_1126)">
<path d="M39.0172 3.82778C38.7814 1.44402 34.9828 0.553382 34.5637 0.448601C34.1445 0.343821 30.5818 -0.494424 26.3378 2.80617C22.0939 6.10675 20.2339 13.6772 20.2339 13.6772L19.8672 15.3013H19.2909C15.9024 15.3082 12.6547 16.6572 10.2588 19.053C7.86277 21.4488 6.51365 24.6963 6.50673 28.0845V28.5822C6.50629 31.1 7.24942 33.5618 8.64291 35.6589C10.0364 37.756 12.0182 39.3949 14.3396 40.37L14.0515 41.7322C13.5275 44.3255 12.5582 47.8094 11.458 50.2194C10.3577 52.6293 9.04783 53.7034 7.71179 54.0701C6.37574 54.4368 5.58983 53.7033 5.24927 53.389C4.90871 53.0747 3.62506 51.0576 3.62506 51.0576C3.37652 50.7122 3.03622 50.4432 2.64267 50.2811C2.24913 50.1191 1.81807 50.0705 1.39831 50.1408C1.21494 50.167 -0.121111 50.5599 0.00987404 52.3674C0.245647 54.7512 4.04421 55.668 4.46336 55.7466C4.88251 55.8252 8.4453 56.6896 12.7154 53.389C16.9855 50.0884 18.7931 42.518 18.7931 42.518L19.0551 41.3654H19.7886C23.177 41.3585 26.4247 40.0095 28.8207 37.6137C31.2167 35.2178 32.5658 31.9704 32.5727 28.5822V28.0845C32.5728 25.5429 31.8152 23.0589 30.3967 20.9499C28.9781 18.8409 26.963 17.2026 24.6088 16.2443L24.9756 14.463C25.4995 11.8959 26.4688 8.38573 27.5691 6.00197C28.6694 3.61821 29.9792 2.49182 31.3153 2.12509C32.6513 1.75836 33.4372 2.49182 33.7778 2.80617C34.1183 3.12051 35.402 5.13753 35.402 5.13753C35.6505 5.48301 35.9908 5.75199 36.3844 5.91403C36.7779 6.07607 37.209 6.12468 37.6287 6.05436C37.8121 6.02817 39.1482 5.63524 39.0172 3.82778ZM9.3622 28.5822V28.0845C9.37558 25.4736 10.4116 22.972 12.2481 21.116C14.0846 19.26 16.5753 18.1976 19.1861 18.1565L17.4833 25.465C17.4309 25.6483 16.252 30.7564 16.252 30.7564C16.252 30.7564 15.5447 34.3713 14.916 37.4885C13.2524 36.6687 11.851 35.4004 10.8698 33.8268C9.88847 32.2531 9.36633 30.4367 9.3622 28.5822ZM29.7173 28.0845V28.5822C29.7173 29.886 29.4604 31.1769 28.9615 32.3815C28.4625 33.586 27.7312 34.6804 26.8092 35.6023C25.8873 36.5242 24.7927 37.2555 23.5881 37.7544C22.3835 38.2534 21.0924 38.5102 19.7886 38.5102H19.71L22.6703 25.465L24.0063 19.0996C25.7073 19.9081 27.1457 21.1801 28.1559 22.7696C29.1662 24.359 29.7074 26.2012 29.7173 28.0845Z" fill="white"/>
<path d="M56.4644 24.8887V8.8573H67.991V11.4506H59.5032V15.7466H67.1527V18.3399H59.5032V24.8887H56.4644Z" fill="white"/>
<path d="M70.8989 10.7172V7.99292H73.7544V10.7172H70.8989ZM70.8989 24.8888V12.6033H73.7544V24.8888H70.8989Z" fill="white"/>
<path d="M77.2648 24.8888V7.99292H80.1202V24.8888H77.2648Z" fill="white"/>
<path d="M88.8963 25.1769C87.7664 25.2099 86.6447 24.9766 85.6217 24.4959C84.7538 24.0206 84.0641 23.2758 83.6569 22.3741C83.1926 21.2268 82.9697 19.9963 83.002 18.7591C82.9645 17.5131 83.1876 16.2729 83.6569 15.118C84.0572 14.2182 84.7495 13.4799 85.6217 13.0224C86.6384 12.5208 87.7632 12.2779 88.8963 12.3151C89.9334 12.2858 90.9609 12.5201 91.8827 12.9962C92.7015 13.4501 93.3397 14.1714 93.6903 15.0394C94.1095 15.9562 94.2929 17.135 94.2929 18.602V19.4402H85.936C85.952 20.0997 86.0668 20.7531 86.2766 21.3786C86.4549 21.8634 86.7859 22.277 87.2197 22.5574C87.7482 22.8187 88.3333 22.9447 88.9225 22.9242C89.2586 22.9244 89.5933 22.8804 89.918 22.7932C90.2247 22.7031 90.5099 22.5516 90.7563 22.3479C91.0014 22.1564 91.1913 21.9033 91.3064 21.6144C91.4394 21.2908 91.502 20.9425 91.4898 20.5928H94.2929C94.3097 21.2941 94.1757 21.9909 93.8999 22.636C93.6355 23.1936 93.24 23.6789 92.7473 24.0505C92.2266 24.4326 91.6407 24.7167 91.0182 24.8888C90.3275 25.0815 89.6135 25.1785 88.8963 25.1769ZM85.9884 17.4494H91.3326C91.3497 17.0054 91.2876 16.5619 91.1492 16.1396C91.0622 15.8106 90.9009 15.5059 90.6777 15.249C90.4779 15.0131 90.214 14.8402 89.918 14.7513C89.5881 14.6442 89.2431 14.5912 88.8963 14.5941C88.3753 14.5834 87.8578 14.6816 87.3769 14.8822C86.9659 15.0823 86.6338 15.4143 86.4338 15.8253C86.1828 16.3332 86.0316 16.8845 85.9884 17.4494Z" fill="white"/>
<path d="M102.309 25.1769C101.204 25.2105 100.108 24.9769 99.1131 24.4959C98.2672 24.0164 97.6039 23.2703 97.2269 22.3741C96.8077 21.431 96.5981 20.1999 96.5981 18.7591C96.5981 17.3184 96.8077 16.061 97.2269 15.118C97.6155 14.2275 98.2879 13.4907 99.1393 13.0224C100.119 12.5232 101.21 12.2799 102.309 12.3151C103.055 12.3015 103.798 12.4076 104.51 12.6295C105.117 12.8187 105.679 13.1307 106.16 13.5463C106.625 13.9724 106.984 14.5018 107.208 15.0918C107.452 15.7718 107.568 16.4913 107.548 17.2136H104.641C104.655 16.7227 104.575 16.2337 104.405 15.7729C104.236 15.4185 103.962 15.1255 103.619 14.9346C103.198 14.7211 102.728 14.6217 102.257 14.6465C101.706 14.6136 101.16 14.7708 100.711 15.0918C100.275 15.4209 99.9542 15.8793 99.7942 16.4016C99.5871 17.1162 99.4899 17.8581 99.506 18.602V18.9163C99.4938 19.6599 99.5909 20.4013 99.7942 21.1167C99.9543 21.6459 100.286 22.1067 100.737 22.4264C101.229 22.7399 101.805 22.8953 102.388 22.8718C102.845 22.8894 103.298 22.7806 103.698 22.5574C104.06 22.3722 104.347 22.0666 104.51 21.693C104.708 21.2482 104.806 20.7654 104.798 20.2784H107.548C107.566 20.9835 107.45 21.6855 107.208 22.3479C106.987 22.9393 106.628 23.4692 106.16 23.8934C105.688 24.3277 105.124 24.65 104.51 24.8364C103.802 25.0805 103.057 25.1958 102.309 25.1769Z" fill="white"/>
<path d="M115.905 25.1769C114.75 25.2115 113.602 24.9784 112.552 24.4958C111.656 24.0326 110.938 23.2868 110.509 22.374C110.023 21.2326 109.79 19.9991 109.828 18.7591C109.828 17.2659 110.063 16.061 110.509 15.1179C110.931 14.2067 111.652 13.4673 112.552 13.0223C113.596 12.5183 114.747 12.2756 115.905 12.3151C117.268 12.3151 118.394 12.5508 119.285 13.0223C120.178 13.4686 120.89 14.2086 121.302 15.1179C121.773 16.061 121.983 17.2659 121.983 18.7591C121.983 20.2522 121.773 21.431 121.302 22.374C120.883 23.2849 120.173 24.0312 119.285 24.4958C118.226 24.9815 117.069 25.2146 115.905 25.1769ZM115.905 22.8455C116.538 22.8736 117.166 22.719 117.713 22.4002C118.2 22.1002 118.562 21.6354 118.735 21.0904C118.963 20.3889 119.069 19.6536 119.049 18.9162V18.5757C119.069 17.8384 118.963 17.103 118.735 16.4015C118.556 15.8598 118.195 15.3968 117.713 15.0917C117.166 14.773 116.538 14.6184 115.905 14.6464C115.273 14.6255 114.648 14.7796 114.098 15.0917C113.631 15.4073 113.281 15.8675 113.102 16.4015C112.874 17.103 112.768 17.8384 112.788 18.5757V18.9162C112.768 19.6536 112.874 20.3889 113.102 21.0904C113.274 21.6282 113.626 22.0906 114.098 22.4002C114.648 22.7123 115.273 22.8664 115.905 22.8455Z" fill="white"/>
<path d="M124.891 10.7172V7.99292H127.746V10.7172H124.891ZM124.891 24.8888V12.6033H127.746V24.8888H124.891Z" fill="white"/>
<path d="M131.257 24.8888V12.6033H133.614L133.85 14.2274H134.034C134.318 13.8512 134.653 13.5162 135.029 13.2319C135.423 12.9366 135.866 12.7147 136.339 12.5771C136.86 12.3908 137.41 12.302 137.963 12.3151C138.666 12.3089 139.363 12.4518 140.007 12.7342C140.614 13.0224 141.11 13.5006 141.421 14.0964C141.788 14.7251 141.945 15.5633 141.945 16.5849V24.8888H139.063V17.1088C139.069 16.7465 139.024 16.3853 138.932 16.0348C138.838 15.7691 138.686 15.5276 138.487 15.3275C138.276 15.1413 138.025 15.0068 137.754 14.9346C137.454 14.8566 137.146 14.8213 136.837 14.8298C136.348 14.8098 135.864 14.9376 135.448 15.1966C135.03 15.4406 134.686 15.7937 134.453 16.2182C134.206 16.6861 134.08 17.2084 134.086 17.7375V24.8888H131.257Z" fill="white"/>
<path d="M56.4644 47.1546V31.1232H67.991V33.7165H59.5032V38.0125H67.1527V40.6058H59.5032V47.1546H56.4644Z" fill="white"/>
<path d="M75.6668 47.4428C74.5115 47.4774 73.3638 47.2443 72.3136 46.7617C71.4115 46.3067 70.6909 45.5584 70.2702 44.6399C69.7841 43.4984 69.5517 42.265 69.5891 41.0249C69.5891 39.5318 69.8249 38.3268 70.2702 37.3838C70.685 36.4677 71.4082 35.726 72.3136 35.2882C73.3575 34.7842 74.5083 34.5415 75.6668 34.5809C77.029 34.5809 78.1555 34.8167 79.0462 35.2882C79.9392 35.7345 80.6515 36.4745 81.0634 37.3838C81.5349 38.3268 81.7445 39.5318 81.7445 41.0249C81.7445 42.5181 81.5349 43.6968 81.0634 44.6399C80.6443 45.5508 79.9348 46.297 79.0462 46.7617C77.9877 47.2474 76.8308 47.4805 75.6668 47.4428ZM75.6668 45.1114C76.2996 45.1394 76.9271 44.9848 77.4744 44.6661C77.961 44.3661 78.3236 43.9013 78.4961 43.3563C78.724 42.6548 78.8304 41.9195 78.8104 41.1821V40.8416C78.8304 40.1042 78.724 39.3689 78.4961 38.6674C78.3175 38.1256 77.9564 37.6627 77.4744 37.3576C76.9271 37.0388 76.2996 36.8842 75.6668 36.9123C75.0347 36.8914 74.4092 37.0455 73.8592 37.3576C73.3927 37.6732 73.0429 38.1334 72.8637 38.6674C72.6358 39.3689 72.5294 40.1042 72.5494 40.8416V41.1821C72.5294 41.9195 72.6358 42.6548 72.8637 43.3563C73.0356 43.8941 73.387 44.3565 73.8592 44.6661C74.4092 44.9782 75.0347 45.1323 75.6668 45.1114Z" fill="white"/>
<path d="M88.5557 47.4428C87.3769 47.4428 86.4076 47.1285 85.6741 46.4736C84.9406 45.8187 84.5476 44.7185 84.5476 43.173V34.8691H87.4031V42.6491C87.3917 43.0136 87.4449 43.3772 87.5603 43.7231C87.6445 43.9937 87.798 44.2375 88.0056 44.4304C88.2023 44.6218 88.4464 44.7575 88.7129 44.8233C89.0213 44.8998 89.3384 44.935 89.656 44.9281C90.1443 44.9404 90.626 44.8132 91.0445 44.5614C91.462 44.313 91.7986 43.9491 92.0137 43.5135C92.2609 43.0551 92.3871 42.5412 92.3805 42.0204V34.8691H95.236V47.1547H92.8783L92.6425 45.5306H92.4853C92.1939 45.9005 91.8597 46.2346 91.4898 46.526C91.0881 46.8146 90.647 47.044 90.18 47.2071C89.6537 47.368 89.106 47.4475 88.5557 47.4428Z" fill="white"/>
<path d="M98.7463 47.1547V34.8691H101.13L101.366 36.4932H101.523C101.815 36.1233 102.149 35.7892 102.519 35.4978C102.912 35.2024 103.356 34.9806 103.829 34.8429C104.349 34.6567 104.9 34.5679 105.453 34.581C106.164 34.5781 106.868 34.7207 107.522 35.0001C108.129 35.2883 108.626 35.7665 108.937 36.3622C109.278 36.9909 109.435 37.8292 109.435 38.8508V47.1547H106.579V39.3747C106.591 39.0102 106.537 38.6466 106.422 38.3007C106.328 38.035 106.175 37.7935 105.977 37.5934C105.772 37.4128 105.531 37.2788 105.269 37.2005C104.961 37.124 104.644 37.0887 104.326 37.0957C103.838 37.0804 103.355 37.2079 102.938 37.4624C102.525 37.7133 102.182 38.0648 101.942 38.4841C101.704 38.9543 101.587 39.4765 101.602 40.0034V47.1547H98.7463Z" fill="white"/>
<path d="M117.137 47.4428C116.226 47.4614 115.327 47.2255 114.543 46.7617C113.765 46.2644 113.168 45.5295 112.84 44.6661C112.406 43.4937 112.201 42.2486 112.238 40.9988C112.238 39.5057 112.447 38.3007 112.866 37.3577C113.186 36.4971 113.773 35.7623 114.543 35.2621C115.273 34.8057 116.119 34.5692 116.979 34.581C117.491 34.5839 118.001 34.6455 118.499 34.7644C118.949 34.8811 119.374 35.0762 119.756 35.3407C120.105 35.602 120.406 35.9209 120.647 36.2837H120.804V30.2588H123.66V47.1547H121.302L121.066 45.5306H120.883C120.501 46.1456 119.957 46.644 119.311 46.9713C118.631 47.2905 117.888 47.4517 117.137 47.4428ZM118.027 44.9805C118.587 45.0173 119.142 44.8601 119.599 44.5351C120.034 44.2167 120.356 43.7667 120.516 43.2516C120.72 42.5902 120.818 41.9004 120.804 41.2084V40.894C120.81 40.3486 120.758 39.8041 120.647 39.2699C120.547 38.8318 120.369 38.4149 120.123 38.0388C119.913 37.7146 119.613 37.4595 119.259 37.3053C118.876 37.1182 118.453 37.0282 118.027 37.0433C117.439 37.0082 116.854 37.1545 116.351 37.4625C115.91 37.7588 115.593 38.206 115.46 38.7198C115.263 39.4181 115.175 40.1426 115.198 40.8678V41.2084C115.178 41.9248 115.266 42.6402 115.46 43.3302C115.608 43.8372 115.921 44.28 116.351 44.5875C116.862 44.8733 117.443 45.0095 118.027 44.9805Z" fill="white"/>
<path d="M130.314 47.4428C129.918 47.4325 129.523 47.3887 129.135 47.3118C128.682 47.2336 128.247 47.0738 127.851 46.8403C127.418 46.5952 127.064 46.2317 126.829 45.7925C126.545 45.1758 126.411 44.5005 126.439 43.8221C126.466 43.1436 126.654 42.4813 126.987 41.8894C127.384 41.32 127.927 40.8677 128.558 40.5797C129.333 40.2344 130.154 40.0049 130.995 39.8986C132.02 39.7676 133.053 39.7063 134.086 39.7152V38.6936C134.091 38.3724 134.038 38.0528 133.929 37.7506C133.812 37.4613 133.599 37.2208 133.326 37.0695C132.924 36.8881 132.483 36.8072 132.043 36.8338C131.58 36.82 131.118 36.891 130.68 37.0433C130.405 37.1446 130.168 37.3274 129.999 37.5672C129.873 37.7518 129.808 37.9721 129.816 38.1959V38.5103H127.065C127.044 38.4336 127.035 38.354 127.039 38.2745V37.9864C127.03 37.3288 127.253 36.689 127.668 36.1789C128.127 35.6245 128.736 35.215 129.423 35.0001C131.17 34.4243 133.058 34.4427 134.793 35.0525C135.456 35.3257 136.022 35.791 136.418 36.3885C136.777 37.0274 136.958 37.7512 136.942 38.4841V44.2732C136.927 44.3956 136.943 44.5197 136.989 44.6342C137.034 44.7487 137.108 44.8497 137.203 44.9281C137.368 45.0351 137.558 45.0982 137.754 45.1114H138.513V47.0761L137.832 47.2856C137.473 47.3775 137.103 47.4215 136.732 47.4166C136.364 47.418 135.999 47.3468 135.658 47.2071C135.346 47.0933 135.067 46.9043 134.846 46.657C134.633 46.393 134.473 46.0907 134.374 45.7663H134.243C133.967 46.0936 133.65 46.3842 133.3 46.6308C132.904 46.8938 132.472 47.0968 132.016 47.2332C131.46 47.3754 130.888 47.4459 130.314 47.4428ZM131.178 45.1114C131.606 45.1145 132.032 45.0436 132.436 44.9019C132.774 44.7699 133.078 44.5641 133.326 44.2994C133.586 44.052 133.783 43.7468 133.903 43.4088C134.031 43.0293 134.093 42.6305 134.086 42.23V41.6799C133.297 41.6756 132.509 41.7281 131.728 41.837C131.114 41.9036 130.522 42.1097 129.999 42.4395C129.787 42.5709 129.615 42.7571 129.499 42.9783C129.384 43.1996 129.331 43.4478 129.344 43.6969C129.341 43.9566 129.414 44.2114 129.554 44.4304C129.697 44.6561 129.908 44.8304 130.157 44.9281C130.482 45.0535 130.829 45.1157 131.178 45.1114Z" fill="white"/>
<path d="M143.858 47.4427C143.229 47.4809 142.604 47.3156 142.076 46.9712C141.647 46.6976 141.316 46.2937 141.133 45.8186C140.955 45.3502 140.867 44.8527 140.871 44.3517V37.2004H139.404V34.8691H140.95L141.447 31.4375H143.727V34.8691H145.849V37.2004H143.727V44.0636C143.71 44.2028 143.726 44.3439 143.771 44.4766C143.816 44.6092 143.89 44.7301 143.988 44.8305C144.086 44.9309 144.205 45.0081 144.336 45.0567C144.468 45.1053 144.609 45.124 144.748 45.1114H145.849V47.076L145.272 47.2332L144.565 47.3904L143.858 47.4427Z" fill="white"/>
<path d="M148.416 32.9831V30.2588H151.271V32.9831H148.416ZM148.416 47.1547V34.8691H151.271V47.1547H148.416Z" fill="white"/>
<path d="M160.257 47.4428C159.093 47.4777 157.937 47.2447 156.877 46.7617C155.987 46.2908 155.271 45.5472 154.834 44.6399C154.389 43.6969 154.179 42.4657 154.179 41.025C154.179 39.5842 154.389 38.3269 154.834 37.3838C155.265 36.4785 155.983 35.7415 156.877 35.2882C157.931 34.784 159.09 34.5414 160.257 34.5809C161.415 34.5415 162.566 34.7842 163.61 35.2882C164.51 35.7332 165.231 36.4726 165.653 37.3838C166.099 38.3269 166.308 39.5318 166.308 41.025C166.308 42.5181 166.099 43.6969 165.653 44.6399C165.224 45.5527 164.506 46.2985 163.61 46.7617C162.56 47.2443 161.412 47.4774 160.257 47.4428ZM160.257 45.1114C160.889 45.1323 161.514 44.9782 162.064 44.6661C162.537 44.3565 162.888 43.8941 163.06 43.3563C163.288 42.6548 163.394 41.9195 163.374 41.1821V40.8416C163.394 40.1042 163.288 39.3689 163.06 38.6674C162.881 38.1334 162.531 37.6732 162.064 37.3576C161.502 37.066 160.877 36.9138 160.244 36.9138C159.61 36.9138 158.986 37.066 158.423 37.3576C157.956 37.6732 157.607 38.1334 157.428 38.6674C157.2 39.3689 157.093 40.1042 157.113 40.8416V41.1821C157.093 41.9195 157.2 42.6548 157.428 43.3563C157.599 43.8941 157.951 44.3565 158.423 44.6661C158.981 44.9817 159.616 45.1358 160.257 45.1114Z" fill="white"/>
<path d="M169.216 47.1546V34.8691H171.6L171.836 36.4932H171.993C172.291 36.1294 172.625 35.796 172.989 35.4977C173.385 35.2074 173.828 34.986 174.298 34.8429C174.82 34.6583 175.37 34.5696 175.923 34.5809C176.634 34.575 177.339 34.7177 177.992 35C178.599 35.2883 179.096 35.7665 179.407 36.3622C179.783 37.1361 179.963 37.9908 179.931 38.8507V47.1546H177.049V39.3746C177.06 39.0102 177.007 38.6466 176.892 38.3006C176.808 38.0301 176.654 37.7862 176.447 37.5934C176.25 37.4019 176.006 37.2663 175.739 37.2004C175.431 37.1239 175.114 37.0887 174.796 37.0957C174.308 37.0833 173.826 37.2106 173.408 37.4624C172.997 37.707 172.661 38.0606 172.438 38.484C172.18 38.9475 172.053 39.4729 172.072 40.0033V47.1546H169.216Z" fill="white"/>
</g>
</g>
<defs>
<clipPath id="clip0_2345_1126">
<rect width="180" height="55.7419" fill="white" transform="translate(0 0.242432)"/>
</clipPath>
<clipPath id="clip1_2345_1126">
<rect width="180" height="55.7419" fill="white" transform="translate(0 0.242432)"/>
</clipPath>
</defs>
</svg>
